<ttFont>
<head>
    <!-- Most of this table will be recalculated by the compiler -->
    <tableVersion value="1.0"/>
    <fontRevision value="3.006"/>
    <checkSumAdjustment value="0x1a132bfe"/>
    <magicNumber value="0x5f0f3cf5"/>
    <flags value="00000000 00000011"/>
    <unitsPerEm value="1000"/>
    <created value="Fri Aug  9 14:21:37 2019"/>
    <modified value="Thu May 28 12:10:01 2020"/>
    <xMin value="-167"/>
    <yMin value="-250"/>
    <xMax value="946"/>
    <yMax value="916"/>
    <macStyle value="00000000 00000000"/>
    <lowestRecPPEM value="3"/>
    <fontDirectionHint value="2"/>
    <indexToLocFormat value="0"/>
    <glyphDataFormat value="0"/>
  </head>
        <CharString name=".notdef">
          94 89 0 rmoveto
          476 0 rlineto
          0 660 rlineto
          -476 0 rlineto
          109 -601 rmoveto
          73 131 rlineto
          54 102 rlineto
          4 0 rlineto
          52 -102 rlineto
          73 -131 rlineto
          -129 329 rmoveto
          -50 94 rlineto
          -66 118 rlineto
          234 0 rlineto
          -65 -118 rlineto
          -49 -94 rlineto
          -175 -277 rmoveto
          0 461 rlineto
          127 -232 rlineto
          217 -229 rmoveto
          -125 229 rlineto
          125 232 rlineto
          endchar
        </CharString>
        <CharString name="A">
          -16 204 366 rmoveto
          23 73 21 72 20 76 rrcurveto
          4 0 rlineto
          21 -76 21 -72 24 -73 rrcurveto
          31 -99 rlineto
          -196 0 rlineto
          -170 -267 rmoveto
          85 0 rlineto
          63 199 rlineto
          239 0 rlineto
          62 -199 rlineto
          89 0 rlineto
          -221 656 rlineto
          -96 0 rlineto
          endchar
        </CharString>
        <CharString name="A.sups">
          -197 138 632 rmoveto
          14 48 15 47 13 49 rrcurveto
          2 0 rlineto
          14 -48 14 -47 15 -49 rrcurveto
          19 -61 rlineto
          -125 0 rlineto
          -120 -177 rmoveto
          64 0 rlineto
          40 127 rlineto
          156 0 rlineto
          39 -127 rlineto
          67 0 rlineto
          -146 432 rlineto
          -73 0 rlineto
          endchar
        </CharString>
        <CharString name="AE">
          263 290 376 rmoveto
          36 70 36 73 35 71 rrcurveto
          4 0 rlineto
          0 -332 rlineto
          -172 0 rlineto
          -221 -258 rmoveto
          89 0 rlineto
          98 191 rlineto
          206 0 rlineto
          0 -191 rlineto
          373 0 rlineto
          0 71 rlineto
          -288 0 rlineto
          0 238 rlineto
          232 0 rlineto
          0 71 rlineto
          -232 0 rlineto
          0 205 rlineto
          278 0 rlineto
          0 71 rlineto
          -412 0 rlineto
          endchar
        </CharString>
        <CharString name="Aacute">
          -16 204 366 rmoveto
          23 73 21 72 20 76 rrcurveto
          4 0 rlineto
          21 -76 21 -72 24 -73 rrcurveto
          31 -99 rlineto
          -196 0 rlineto
          -170 -267 rmoveto
          85 0 rlineto
          63 199 rlineto
          239 0 rlineto
          62 -199 rlineto
          89 0 rlineto
          -221 656 rlineto
          -96 0 rlineto
          -9 41 rmoveto
          186 115 rlineto
          -39 56 rlineto
          -179 -130 rlineto
          endchar
        </CharString>
        <CharString name="Acircumflex">
          -16 204 366 rmoveto
          23 73 21 72 20 76 rrcurveto
          4 0 rlineto
          21 -76 21 -72 24 -73 rrcurveto
          31 -99 rlineto
          -196 0 rlineto
          -170 -267 rmoveto
          85 0 rlineto
          63 199 rlineto
          239 0 rlineto
          62 -199 rlineto
          89 0 rlineto
          -221 656 rlineto
          -96 0 rlineto
          -65 43 rmoveto
          110 92 rlineto
          4 0 rlineto
          110 -92 rlineto
          36 26 rlineto
          -104 113 rlineto
          -88 0 rlineto
          -104 -113 rlineto
          endchar
        </CharString>
        <CharString name="Adieresis">
          -16 204 366 rmoveto
          23 73 21 72 20 76 rrcurveto
          4 0 rlineto
          21 -76 21 -72 24 -73 rrcurveto
          31 -99 rlineto
          -196 0 rlineto
          -170 -267 rmoveto
          85 0 rlineto
          63 199 rlineto
          239 0 rlineto
          62 -199 rlineto
          89 0 rlineto
          -221 656 rlineto
          -96 0 rlineto
          -56 59 rmoveto
          29 0 20 21 0 28 rrcurveto
          0 29 -20 21 -29 0 rrcurveto
          -28 0 -21 -21 0 -29 rrcurveto
          0 -28 21 -21 28 0 rrcurveto
          206 0 rmoveto
          28 0 21 21 0 28 rrcurveto
          0 29 -21 21 -28 0 rrcurveto
          -29 0 -20 -21 0 -29 rrcurveto
          0 -28 20 -21 29 0 rrcurveto
          endchar
        </CharString>
        <CharString name="Agrave">
          -16 204 366 rmoveto
          23 73 21 72 20 76 rrcurveto
          4 0 rlineto
          21 -76 21 -72 24 -73 rrcurveto
          31 -99 rlineto
          -196 0 rlineto
          -170 -267 rmoveto
          85 0 rlineto
          63 199 rlineto
          239 0 rlineto
          62 -199 rlineto
          89 0 rlineto
          -221 656 rlineto
          -96 0 rlineto
          103 41 rmoveto
          32 41 rlineto
          -179 130 rlineto
          -39 -56 rlineto
          endchar
        </CharString>
        <CharString name="Aring">
          -16 204 366 rmoveto
          23 73 21 72 20 76 rrcurveto
          4 0 rlineto
          21 -76 21 -72 24 -73 rrcurveto
          31 -99 rlineto
          -196 0 rlineto
          -170 -267 rmoveto
          85 0 rlineto
          63 199 rlineto
          239 0 rlineto
          62 -199 rlineto
          89 0 rlineto
          -221 656 rlineto
          -96 0 rlineto
          47 79 rmoveto
          -33 0 -24 19 0 35 rrcurveto
          0 36 24 19 33 0 rrcurveto
          33 0 24 -19 0 -36 rrcurveto
          0 -35 -24 -19 -33 0 rrcurveto
          0 -36 rmoveto
          67 0 44 34 0 56 rrcurveto
          0 56 -44 35 -67 0 rrcurveto
          -67 0 -44 -35 0 -56 rrcurveto
          0 -56 44 -34 67 0 rrcurveto
          endchar
        </CharString>
        <CharString name="Atilde">
          -16 204 366 rmoveto
          23 73 21 72 20 76 rrcurveto
          4 0 rlineto
          21 -76 21 -72 24 -73 rrcurveto
          31 -99 rlineto
          -196 0 rlineto
          -170 -267 rmoveto
          85 0 rlineto
          63 199 rlineto
          239 0 rlineto
          62 -199 rlineto
          89 0 rlineto
          -221 656 rlineto
          -96 0 rlineto
          122 53 rmoveto
          60 0 39 46 3 77 rrcurveto
          -56 4 rlineto
          -5 -43 -18 -23 -25 0 rrcurveto
          -47 0 -26 71 -75 0 rrcurveto
          -60 0 -39 -46 -3 -77 rrcurveto
          56 -4 rlineto
          4 42 19 23 25 0 rrcurveto
          47 0 26 -70 75 0 rrcurveto
          endchar
        </CharString>
        <CharString name="B">
          28 90 0 rmoveto
          210 0 rlineto
          146 0 102 63 0 129 rrcurveto
          0 90 -55 52 -78 15 rrcurveto
          0 4 rlineto
          61 20 35 58 0 65 rrcurveto
          0 115 -93 45 -133 0 rrcurveto
          -195 0 rlineto
          84 -279 rmoveto
          0 212 rlineto
          100 0 rlineto
          102 0 52 -28 0 -76 rrcurveto
          0 -67 -46 -41 -111 0 rrcurveto
          -97 -310 rmoveto
          0 246 rlineto
          114 0 rlineto
          114 0 63 -37 0 -81 rrcurveto
          0 -88 -65 -40 -112 0 rrcurveto
          endchar
        </CharString>
        <CharString name="B.sups">
          -168 57 394 rmoveto
          144 0 rlineto
          97 0 69 42 0 85 rrcurveto
          0 59 -36 34 -63 11 rrcurveto
          0 2 rlineto
          51 14 24 38 0 42 rrcurveto
          0 76 -63 29 -89 0 rrcurveto
          -134 0 rlineto
          63 -182 rmoveto
          0 133 rlineto
          65 0 rlineto
          64 0 32 -19 0 -44 rrcurveto
          0 -45 -28 -25 -71 0 rrcurveto
          -62 -201 rmoveto
          0 155 rlineto
          73 0 rlineto
          73 0 39 -23 0 -50 rrcurveto
          0 -57 -40 -25 -72 0 rrcurveto
          endchar
        </CharString>
        <CharString name="C">
          11 338 -12 rmoveto
          84 0 64 34 53 61 rrcurveto
          -46 50 rlineto
          -42 -46 -47 -25 -63 0 rrcurveto
          -124 0 -78 103 0 165 rrcurveto
          0 163 82 101 123 0 rrcurveto
          56 0 43 -23 35 -36 rrcurveto
          46 52 rlineto
          -39 43 -62 38 -80 0 rrcurveto
          -167 0 -124 -129 0 -211 rrcurveto
          0 -214 122 -126 164 0 rrcurveto
          endchar
        </CharString>
        <CharString name="C.sups">
          -181 225 386 rmoveto
          57 0 44 23 34 40 rrcurveto
          -35 38 rlineto
          -26 -29 -31 -17 -40 0 rrcurveto
          -80 0 -50 65 0 105 rrcurveto
          0 103 53 66 80 0 rrcurveto
          34 0 27 -15 24 -24 rrcurveto
          35 39 rlineto
          -26 30 -42 24 -53 0 rrcurveto
          -112 0 -86 -86 0 -139 rrcurveto
          0 -141 83 -82 110 0 rrcurveto
          endchar
        </CharString>
        <CharString name="Ccedilla">
          11 255 -226 rmoveto
          106 5 59 28 0 58 rrcurveto
          0 41 -27 19 -46 11 rrcurveto
          23 54 rlineto
          69 7 54 33 46 53 rrcurveto
          -46 50 rlineto
          -42 -46 -47 -25 -63 0 rrcurveto
          -124 0 -78 103 0 165 rrcurveto
          0 163 82 101 123 0 rrcurveto
          56 0 43 -23 35 -36 rrcurveto
          46 52 rlineto
          -39 43 -62 38 -80 0 rrcurveto
          -167 0 -124 -129 0 -211 rrcurveto
          0 -204 111 -124 152 -11 rrcurveto
          -36 -77 rlineto
          57 -8 20 -14 0 -26 rrcurveto
          0 -29 -25 -15 -84 -6 rrcurveto
          endchar
        </CharString>
        <CharString name="D">
          56 90 0 rmoveto
          168 0 rlineto
          198 0 108 122 0 209 rrcurveto
          0 208 -108 117 -202 0 rrcurveto
          -164 0 rlineto
          84 -587 rmoveto
          0 518 rlineto
          74 0 rlineto
          153 0 76 -91 0 -165 rrcurveto
          0 -166 -76 -96 -153 0 rrcurveto
          endchar
        </CharString>
        <CharString name="D.sups">
          -149 57 394 rmoveto
          115 0 rlineto
          132 0 74 79 0 140 rrcurveto
          0 138 -74 75 -135 0 rrcurveto
          -112 0 rlineto
          63 -381 rmoveto
          0 330 rlineto
          46 0 rlineto
          97 0 50 -54 0 -109 rrcurveto
          0 -108 -49 -59 -96 0 rrcurveto
          endchar
        </CharString>
        <CharString name="E">
          -33 90 0 rmoveto
          388 0 rlineto
          0 71 rlineto
          -304 0 rlineto
          0 238 rlineto
          248 0 rlineto
          0 71 rlineto
          -248 0 rlineto
          0 205 rlineto
          294 0 rlineto
          0 71 rlineto
          -378 0 rlineto
          endchar
        </CharString>
        <CharString name="E.sups">
          -208 57 394 rmoveto
          263 0 rlineto
          0 53 rlineto
          -200 0 rlineto
          0 148 rlineto
          164 0 rlineto
          0 52 rlineto
          -164 0 rlineto
          0 127 rlineto
          194 0 rlineto
          0 52 rlineto
          -257 0 rlineto
          endchar
        </CharString>
        <CharString name="Eacute">
          -33 90 0 rmoveto
          388 0 rlineto
          0 71 rlineto
          -304 0 rlineto
          0 238 rlineto
          248 0 rlineto
          0 71 rlineto
          -248 0 rlineto
          0 205 rlineto
          294 0 rlineto
          0 71 rlineto
          -378 0 rlineto
          144 41 rmoveto
          186 115 rlineto
          -39 56 rlineto
          -179 -130 rlineto
          endchar
        </CharString>
        <CharString name="Ecircumflex">
          -33 90 0 rmoveto
          388 0 rlineto
          0 71 rlineto
          -304 0 rlineto
          0 238 rlineto
          248 0 rlineto
          0 71 rlineto
          -248 0 rlineto
          0 205 rlineto
          294 0 rlineto
          0 71 rlineto
          -378 0 rlineto
          88 43 rmoveto
          110 92 rlineto
          4 0 rlineto
          110 -92 rlineto
          36 26 rlineto
          -104 113 rlineto
          -88 0 rlineto
          -104 -113 rlineto
          endchar
        </CharString>
        <CharString name="Edieresis">
          -33 90 0 rmoveto
          388 0 rlineto
          0 71 rlineto
          -304 0 rlineto
          0 238 rlineto
          248 0 rlineto
          0 71 rlineto
          -248 0 rlineto
          0 205 rlineto
          294 0 rlineto
          0 71 rlineto
          -378 0 rlineto
          97 59 rmoveto
          29 0 20 21 0 28 rrcurveto
          0 29 -20 21 -29 0 rrcurveto
          -28 0 -21 -21 0 -29 rrcurveto
          0 -28 21 -21 28 0 rrcurveto
          206 0 rmoveto
          28 0 21 21 0 28 rrcurveto
          0 29 -21 21 -28 0 rrcurveto
          -29 0 -20 -21 0 -29 rrcurveto
          0 -28 20 -21 29 0 rrcurveto
          endchar
        </CharString>
        <CharString name="Egrave">
          -33 90 0 rmoveto
          388 0 rlineto
          0 71 rlineto
          -304 0 rlineto
          0 238 rlineto
          248 0 rlineto
          0 71 rlineto
          -248 0 rlineto
          0 205 rlineto
          294 0 rlineto
          0 71 rlineto
          -378 0 rlineto
          256 41 rmoveto
          32 41 rlineto
          -179 130 rlineto
          -39 -56 rlineto
          endchar
        </CharString>
        <CharString name="Eth">
          77 112 0 rmoveto
          168 0 rlineto
          198 0 108 122 0 209 rrcurveto
          0 208 -108 117 -202 0 rrcurveto
          -164 0 rlineto
          0 -280 rlineto
          -79 -3 rlineto
          0 -60 rlineto
          79 0 rlineto
          84 -244 rmoveto
          0 244 rlineto
          148 0 rlineto
          0 63 rlineto
          -148 0 rlineto
          0 211 rlineto
          74 0 rlineto
          153 0 76 -91 0 -165 rrcurveto
          0 -166 -76 -96 -153 0 rrcurveto
          endchar
        </CharString>
        <CharString name="F">
          -65 90 0 rmoveto
          84 0 rlineto
          0 293 rlineto
          250 0 rlineto
          0 71 rlineto
          -250 0 rlineto
          0 221 rlineto
          294 0 rlineto
          0 71 rlineto
          -378 0 rlineto
          endchar
        </CharString>
        <CharString name="F.sups">
          -230 57 394 rmoveto
          63 0 rlineto
          0 189 rlineto
          165 0 rlineto
          0 53 rlineto
          -165 0 rlineto
          0 138 rlineto
          194 0 rlineto
          0 52 rlineto
          -257 0 rlineto
          endchar
        </CharString>
        <CharString name="G">
          57 348 -12 rmoveto
          88 0 72 32 43 44 rrcurveto
          0 276 rlineto
          -216 0 rlineto
          0 -69 rlineto
          139 0 rlineto
          0 -171 rlineto
          -26 -24 -45 -14 -47 0 rrcurveto
          -140 0 -77 103 0 165 rrcurveto
          0 163 84 101 132 0 rrcurveto
          66 0 42 -25 33 -34 rrcurveto
          46 52 rlineto
          -38 41 -60 40 -91 0 rrcurveto
          -174 0 -127 -129 0 -211 rrcurveto
          0 -214 123 -126 173 0 rrcurveto
          endchar
        </CharString>
        <CharString name="G.sups">
          -148 232 386 rmoveto
          59 0 49 22 29 28 rrcurveto
          0 186 rlineto
          -145 0 rlineto
          0 -52 rlineto
          89 0 rlineto
          0 -106 rlineto
          -16 -14 -29 -9 -29 0 rrcurveto
          -91 0 -50 65 0 106 rrcurveto
          0 103 54 65 85 0 rrcurveto
          43 0 27 -16 22 -22 rrcurveto
          34 39 rlineto
          -27 27 -40 26 -59 0 rrcurveto
          -118 0 -86 -85 0 -140 rrcurveto
          0 -141 83 -82 116 0 rrcurveto
          endchar
        </CharString>
        <CharString name="H">
          92 90 0 rmoveto
          84 0 rlineto
          0 308 rlineto
          304 0 rlineto
          0 -308 rlineto
          84 0 rlineto
          0 656 rlineto
          -84 0 rlineto
          0 -274 rlineto
          -304 0 rlineto
          0 274 rlineto
          -84 0 rlineto
          endchar
        </CharString>
        <CharString name="H.sups">
          -125 57 394 rmoveto
          63 0 rlineto
          0 200 rlineto
          195 0 rlineto
          0 -200 rlineto
          63 0 rlineto
          0 432 rlineto
          -63 0 rlineto
          0 -177 rlineto
          -195 0 rlineto
          0 177 rlineto
          -63 0 rlineto
          endchar
        </CharString>
        <CharString name="I">
          -297 90 0 rmoveto
          84 0 rlineto
          0 656 rlineto
          -84 0 rlineto
          endchar
        </CharString>
        <CharString name="I.sups">
          -383 57 394 rmoveto
          63 0 rlineto
          0 432 rlineto
          -63 0 rlineto
          endchar
        </CharString>
        <CharString name="Iacute">
          -297 90 0 rmoveto
          84 0 rlineto
          0 656 rlineto
          -84 0 rlineto
          -14 41 rmoveto
          186 115 rlineto
          -39 56 rlineto
          -179 -130 rlineto
          endchar
        </CharString>
        <CharString name="Icircumflex">
          -297 90 0 rmoveto
          84 0 rlineto
          0 656 rlineto
          -84 0 rlineto
          -70 43 rmoveto
          110 92 rlineto
          4 0 rlineto
          110 -92 rlineto
          36 26 rlineto
          -104 113 rlineto
          -88 0 rlineto
          -104 -113 rlineto
          endchar
        </CharString>
        <CharString name="Idieresis">
          -297 90 0 rmoveto
          84 0 rlineto
          0 656 rlineto
          -84 0 rlineto
          -61 59 rmoveto
          29 0 20 21 0 28 rrcurveto
          0 29 -20 21 -29 0 rrcurveto
          -28 0 -21 -21 0 -29 rrcurveto
          0 -28 21 -21 28 0 rrcurveto
          206 0 rmoveto
          28 0 21 21 0 28 rrcurveto
          0 29 -21 21 -28 0 rrcurveto
          -29 0 -20 -21 0 -29 rrcurveto
          0 -28 20 -21 29 0 rrcurveto
          endchar
        </CharString>
        <CharString name="Igrave">
          -297 90 0 rmoveto
          84 0 rlineto
          0 656 rlineto
          -84 0 rlineto
          98 41 rmoveto
          32 41 rlineto
          -179 130 rlineto
          -39 -56 rlineto
          endchar
        </CharString>
        <CharString name="J">
          -80 207 -12 rmoveto
          132 0 54 92 0 116 rrcurveto
          0 460 rlineto
          -84 0 rlineto
          0 -453 rlineto
          0 -101 -35 -40 -72 0 rrcurveto
          -48 0 -37 21 -28 49 rrcurveto
          -56 -38 rlineto
          36 -71 59 -35 79 0 rrcurveto
          endchar
        </CharString>
        <CharString name="J.sups">
          -238 140 386 rmoveto
          89 0 37 62 0 77 rrcurveto
          0 301 rlineto
          -63 0 rlineto
          0 -296 rlineto
          0 -64 -23 -25 -45 0 rrcurveto
          -30 0 -24 14 -19 33 rrcurveto
          -44 -31 rlineto
          26 -46 39 -25 57 0 rrcurveto
          endchar
        </CharString>
        <CharString name="K">
          19 90 0 rmoveto
          84 0 rlineto
          0 207 rlineto
          112 133 rlineto
          195 -340 rlineto
          94 0 rlineto
          -237 406 rlineto
          206 250 rlineto
          -96 0 rlineto
          -271 -328 rlineto
          -3 0 rlineto
          0 328 rlineto
          -84 0 rlineto
          endchar
        </CharString>
        <CharString name="K.sups">
          -173 57 394 rmoveto
          63 0 rlineto
          0 135 rlineto
          72 84 rlineto
          126 -219 rlineto
          70 0 rlineto
          -158 268 rlineto
          136 164 rlineto
          -71 0 rlineto
          -173 -209 rlineto
          -2 0 rlineto
          0 209 rlineto
          -63 0 rlineto
          endchar
        </CharString>
        <CharString name="L">
          -74 90 0 rmoveto
          370 0 rlineto
          0 71 rlineto
          -286 0 rlineto
          0 585 rlineto
          -84 0 rlineto
          endchar
        </CharString>
        <CharString name="L.sups">
          -235 57 394 rmoveto
          251 0 rlineto
          0 53 rlineto
          -188 0 rlineto
          0 379 rlineto
          -63 0 rlineto
          endchar
        </CharString>
        <CharString name="M">
          167 89 0 rmoveto
          77 0 rlineto
          0 362 rlineto
          0 58 -7 81 -5 57 rrcurveto
          4 0 rlineto
          52 -153 rlineto
          122 -339 rlineto
          61 0 rlineto
          123 339 rlineto
          51 153 rlineto
          4 0 rlineto
          -5 -57 -7 -81 0 -58 rrcurveto
          0 -362 rlineto
          79 0 rlineto
          0 656 rlineto
          -105 0 rlineto
          -124 -351 rlineto
          -16 -46 -12 -42 -15 -49 rrcurveto
          -4 0 rlineto
          -14 49 -14 42 -16 46 rrcurveto
          -124 351 rlineto
          -105 0 rlineto
          endchar
        </CharString>
        <CharString name="M.sups">
          -75 57 395 rmoveto
          58 0 rlineto
          0 226 rlineto
          0 38 -3 49 -4 42 rrcurveto
          2 0 rlineto
          33 -100 rlineto
          79 -214 rlineto
          42 0 rlineto
          78 214 rlineto
          33 100 rlineto
          2 0 rlineto
          -4 -42 -4 -49 0 -38 rrcurveto
          0 -226 rlineto
          60 0 rlineto
          0 432 rlineto
          -74 0 rlineto
          -82 -225 rlineto
          -27 -88 rlineto
          -3 0 rlineto
          -27 88 rlineto
          -85 225 rlineto
          -74 0 rlineto
          endchar
        </CharString>
        <CharString name="N">
          86 90 0 rmoveto
          79 0 rlineto
          0 345 rlineto
          0 68 -6 71 -5 66 rrcurveto
          4 0 rlineto
          22 -48 24 -49 25 -44 rrcurveto
          234 -409 rlineto
          90 0 rlineto
          0 656 rlineto
          -79 0 rlineto
          0 -342 rlineto
          0 -68 6 -72 5 -68 rrcurveto
          -4 0 rlineto
          -23 48 -23 49 -25 44 rrcurveto
          -234 409 rlineto
          -90 0 rlineto
          endchar
        </CharString>
        <CharString name="N.sups">
          -130 57 395 rmoveto
          58 0 rlineto
          0 216 rlineto
          0 45 -3 47 -4 46 rrcurveto
          3 0 rlineto
          47 -94 rlineto
          148 -260 rlineto
          68 0 rlineto
          0 432 rlineto
          -58 0 rlineto
          0 -213 rlineto
          0 -46 2 -50 5 -45 rrcurveto
          -3 0 rlineto
          -46 94 rlineto
          -148 260 rlineto
          -69 0 rlineto
          endchar
        </CharString>
        <CharString name="Ntilde">
          87 90 0 rmoveto
          79 0 rlineto
          0 345 rlineto
          0 68 -6 71 -5 66 rrcurveto
          4 0 rlineto
          22 -48 24 -49 25 -44 rrcurveto
          234 -409 rlineto
          90 0 rlineto
          0 656 rlineto
          -79 0 rlineto
          0 -342 rlineto
          0 -68 6 -72 5 -68 rrcurveto
          -4 0 rlineto
          -23 48 -23 49 -25 44 rrcurveto
          -234 409 rlineto
          -90 0 rlineto
          319 53 rmoveto
          60 0 39 46 3 77 rrcurveto
          -56 4 rlineto
          -5 -43 -18 -23 -25 0 rrcurveto
          -47 0 -26 71 -75 0 rrcurveto
          -60 0 -39 -46 -3 -77 rrcurveto
          56 -4 rlineto
          4 42 19 23 25 0 rrcurveto
          47 0 26 -70 75 0 rrcurveto
          endchar
        </CharString>
        <CharString name="O">
          104 332 -12 rmoveto
          165 0 116 132 0 211 rrcurveto
          0 209 -116 128 -165 0 rrcurveto
          -165 0 -115 -127 0 -210 rrcurveto
          0 -211 115 -132 165 0 rrcurveto
          0 74 rmoveto
          -117 0 -76 105 0 164 rrcurveto
          0 163 76 100 117 0 rrcurveto
          117 0 77 -100 0 -163 rrcurveto
          0 -164 -77 -105 -117 0 rrcurveto
          endchar
        </CharString>
        <CharString name="O.sups">
          -117 221 386 rmoveto
          112 0 79 87 0 139 rrcurveto
          0 139 -79 83 -112 0 rrcurveto
          -110 0 -79 -83 0 -139 rrcurveto
          0 -139 79 -87 110 0 rrcurveto
          0 55 rmoveto
          -75 0 -48 67 0 104 rrcurveto
          0 105 48 63 75 0 rrcurveto
          76 0 49 -63 0 -105 rrcurveto
          0 -104 -49 -67 -76 0 rrcurveto
          endchar
        </CharString>
        <CharString name="Oacute">
          104 332 -12 rmoveto
          165 0 116 132 0 211 rrcurveto
          0 209 -116 128 -165 0 rrcurveto
          -165 0 -115 -127 0 -210 rrcurveto
          0 -211 115 -132 165 0 rrcurveto
          0 74 rmoveto
          -117 0 -76 105 0 164 rrcurveto
          0 163 76 100 117 0 rrcurveto
          117 0 77 -100 0 -163 rrcurveto
          0 -164 -77 -105 -117 0 rrcurveto
          -56 635 rmoveto
          186 115 rlineto
          -39 56 rlineto
          -179 -130 rlineto
          endchar
        </CharString>
        <CharString name="Ocircumflex">
          104 332 -12 rmoveto
          165 0 116 132 0 211 rrcurveto
          0 209 -116 128 -165 0 rrcurveto
          -165 0 -115 -127 0 -210 rrcurveto
          0 -211 115 -132 165 0 rrcurveto
          0 74 rmoveto
          -117 0 -76 105 0 164 rrcurveto
          0 163 76 100 117 0 rrcurveto
          117 0 77 -100 0 -163 rrcurveto
          0 -164 -77 -105 -117 0 rrcurveto
          -112 637 rmoveto
          110 92 rlineto
          4 0 rlineto
          110 -92 rlineto
          36 26 rlineto
          -104 113 rlineto
          -88 0 rlineto
          -104 -113 rlineto
          endchar
        </CharString>
        <CharString name="Odieresis">
          104 332 -12 rmoveto
          165 0 116 132 0 211 rrcurveto
          0 209 -116 128 -165 0 rrcurveto
          -165 0 -115 -127 0 -210 rrcurveto
          0 -211 115 -132 165 0 rrcurveto
          0 74 rmoveto
          -117 0 -76 105 0 164 rrcurveto
          0 163 76 100 117 0 rrcurveto
          117 0 77 -100 0 -163 rrcurveto
          0 -164 -77 -105 -117 0 rrcurveto
          -103 653 rmoveto
          29 0 20 21 0 28 rrcurveto
          0 29 -20 21 -29 0 rrcurveto
          -28 0 -21 -21 0 -29 rrcurveto
          0 -28 21 -21 28 0 rrcurveto
          206 0 rmoveto
          28 0 21 21 0 28 rrcurveto
          0 29 -21 21 -28 0 rrcurveto
          -29 0 -20 -21 0 -29 rrcurveto
          0 -28 20 -21 29 0 rrcurveto
          endchar
        </CharString>
        <CharString name="Ograve">
          104 332 -12 rmoveto
          165 0 116 132 0 211 rrcurveto
          0 209 -116 128 -165 0 rrcurveto
          -165 0 -115 -127 0 -210 rrcurveto
          0 -211 115 -132 165 0 rrcurveto
          0 74 rmoveto
          -117 0 -76 105 0 164 rrcurveto
          0 163 76 100 117 0 rrcurveto
          117 0 77 -100 0 -163 rrcurveto
          0 -164 -77 -105 -117 0 rrcurveto
          56 635 rmoveto
          32 41 rlineto
          -179 130 rlineto
          -39 -56 rlineto
          endchar
        </CharString>
        <CharString name="Oslash">
          104 98 -32 rmoveto
          64 83 rlineto
          46 -41 59 -22 68 0 rrcurveto
          165 0 116 132 0 211 rrcurveto
          0 94 -23 77 -41 57 rrcurveto
          69 89 rlineto
          -51 40 rlineto
          -62 -81 rlineto
          -46 40 -60 21 -67 0 rrcurveto
          -165 0 -115 -127 0 -210 rrcurveto
          0 -95 23 -78 40 -58 rrcurveto
          -70 -92 rlineto
          94 323 rmoveto
          0 163 76 100 117 0 rrcurveto
          49 0 43 -18 32 -33 rrcurveto
          -286 -372 rlineto
          -20 43 -11 54 0 63 rrcurveto
          193 -269 rmoveto
          -50 0 -42 19 -32 34 rrcurveto
          287 373 rlineto
          20 -42 11 -53 0 -62 rrcurveto
          0 -164 -77 -105 -117 0 rrcurveto
          endchar
        </CharString>
        <CharString name="Otilde">
          104 332 -12 rmoveto
          165 0 116 132 0 211 rrcurveto
          0 209 -116 128 -165 0 rrcurveto
          -165 0 -115 -127 0 -210 rrcurveto
          0 -211 115 -132 165 0 rrcurveto
          0 74 rmoveto
          -117 0 -76 105 0 164 rrcurveto
          0 163 76 100 117 0 rrcurveto
          117 0 77 -100 0 -163 rrcurveto
          0 -164 -77 -105 -117 0 rrcurveto
          75 647 rmoveto
          60 0 39 46 3 77 rrcurveto
          -56 4 rlineto
          -5 -43 -18 -23 -25 0 rrcurveto
          -47 0 -26 71 -75 0 rrcurveto
          -60 0 -39 -46 -3 -77 rrcurveto
          56 -4 rlineto
          4 42 19 23 25 0 rrcurveto
          47 0 26 -70 75 0 rrcurveto
          endchar
        </CharString>
        <CharString name="P">
          7 90 0 rmoveto
          84 0 rlineto
          0 260 rlineto
          107 0 rlineto
          144 0 99 64 0 139 rrcurveto
          0 144 -100 49 -147 0 rrcurveto
          -187 0 rlineto
          84 -328 rmoveto
          0 260 rlineto
          93 0 rlineto
          115 0 58 -31 0 -94 rrcurveto
          0 -93 -55 -42 -114 0 rrcurveto
          endchar
        </CharString>
        <CharString name="P.sups">
          -175 57 394 rmoveto
          63 0 rlineto
          0 167 rlineto
          77 0 rlineto
          94 0 69 43 0 94 rrcurveto
          0 95 -67 33 -96 0 rrcurveto
          -140 0 rlineto
          63 -214 rmoveto
          0 163 rlineto
          69 0 rlineto
          72 0 36 -19 0 -58 rrcurveto
          0 -59 -35 -27 -73 0 rrcurveto
          endchar
        </CharString>
        <CharString name="Q">
          104 332 58 rmoveto
          -117 0 -76 106 0 167 rrcurveto
          0 163 76 100 117 0 rrcurveto
          117 0 77 -100 0 -163 rrcurveto
          0 -167 -77 -106 -117 0 rrcurveto
          201 -223 rmoveto
          40 0 35 7 19 9 rrcurveto
          -16 63 rlineto
          -17 -5 -23 -4 -29 0 rrcurveto
          -70 0 -60 29 -30 58 rrcurveto
          138 24 93 126 0 189 rrcurveto
          0 209 -116 128 -165 0 rrcurveto
          -165 0 -115 -127 0 -210 rrcurveto
          0 -193 96 -127 143 -20 rrcurveto
          38 -90 83 -66 121 0 rrcurveto
          endchar
        </CharString>
        <CharString name="Q.sups">
          -117 220 439 rmoveto
          -75 0 -49 68 0 106 rrcurveto
          0 103 49 64 75 0 rrcurveto
          76 0 49 -64 0 -103 rrcurveto
          0 -106 -49 -68 -76 0 rrcurveto
          136 -154 rmoveto
          28 0 24 6 14 5 rrcurveto
          -12 48 rlineto
          -12 -4 -15 -3 -20 0 rrcurveto
          -46 0 -39 16 -20 37 rrcurveto
          91 17 61 83 0 123 rrcurveto
          0 137 -78 84 -112 0 rrcurveto
          -111 0 -78 -83 0 -138 rrcurveto
          0 -128 65 -83 95 -14 rrcurveto
          26 -61 57 -42 82 0 rrcurveto
          endchar
        </CharString>
        <CharString name="R">
          10 90 0 rmoveto
          84 0 rlineto
          0 277 rlineto
          118 0 rlineto
          158 -277 rlineto
          95 0 rlineto
          -167 286 rlineto
          89 23 58 60 0 102 rrcurveto
          0 137 -96 48 -134 0 rrcurveto
          -205 0 rlineto
          84 -311 rmoveto
          0 243 rlineto
          109 0 rlineto
          102 0 56 -31 0 -86 rrcurveto
          0 -84 -56 -42 -102 0 rrcurveto
          endchar
        </CharString>
        <CharString name="R.sups">
          -171 57 394 rmoveto
          63 0 rlineto
          0 178 rlineto
          76 0 rlineto
          101 -178 rlineto
          71 0 rlineto
          -108 186 rlineto
          56 17 38 41 0 66 rrcurveto
          0 90 -67 32 -89 0 rrcurveto
          -141 0 rlineto
          63 -203 rmoveto
          0 152 rlineto
          70 0 rlineto
          66 0 35 -19 0 -54 rrcurveto
          0 -53 -35 -26 -66 0 rrcurveto
          endchar
        </CharString>
        <CharString name="S">
          -26 272 -12 rmoveto
          138 0 86 83 0 104 rrcurveto
          0 97 -59 46 -76 32 rrcurveto
          -94 41 rlineto
          -51 21 -57 24 0 63 rrcurveto
          0 58 48 37 73 0 rrcurveto
          57 0 51 -23 40 -38 rrcurveto
          46 56 rlineto
          -46 46 -68 33 -80 0 rrcurveto
          -119 0 -87 -74 0 -100 rrcurveto
          0 -97 71 -46 61 -26 rrcurveto
          95 -42 rlineto
          61 -27 48 -21 0 -67 rrcurveto
          0 -63 -51 -43 -86 0 rrcurveto
          -69 0 -67 30 -48 49 rrcurveto
          -47 -55 rlineto
          57 -61 79 -37 94 0 rrcurveto
          endchar
        </CharString>
        <CharString name="S.sups">
          -204 182 386 rmoveto
          93 0 57 56 0 73 rrcurveto
          0 60 -34 28 -55 23 rrcurveto
          -62 27 rlineto
          -34 15 -37 15 0 39 rrcurveto
          0 36 29 24 47 0 rrcurveto
          41 0 31 -17 28 -24 rrcurveto
          33 40 rlineto
          -32 32 -48 21 -51 0 rrcurveto
          -82 0 -60 -50 0 -66 rrcurveto
          0 -63 45 -29 44 -20 rrcurveto
          63 -27 rlineto
          41 -18 30 -13 0 -42 rrcurveto
          0 -39 -31 -27 -54 0 rrcurveto
          -45 0 -45 18 -32 34 rrcurveto
          -35 -42 rlineto
          40 -39 54 -25 61 0 rrcurveto
          endchar
        </CharString>
        <CharString name="T">
          -24 226 0 rmoveto
          84 0 rlineto
          0 585 rlineto
          199 0 rlineto
          0 71 rlineto
          -481 0 rlineto
          0 -71 rlineto
          198 0 rlineto
          endchar
        </CharString>
        <CharString name="T.sups">
          -203 147 394 rmoveto
          63 0 rlineto
          0 380 rlineto
          130 0 rlineto
          0 52 rlineto
          -323 0 rlineto
          0 -52 rlineto
          130 0 rlineto
          endchar
        </CharString>
        <CharString name="Thorn">
          24 90 0 rmoveto
          84 0 rlineto
          0 150 rlineto
          117 0 rlineto
          144 0 99 64 0 139 rrcurveto
          0 143 -98 50 -145 0 rrcurveto
          -117 0 rlineto
          0 110 rlineto
          -84 0 rlineto
          84 -438 rmoveto
          0 260 rlineto
          107 0 rlineto
          113 0 56 -31 0 -94 rrcurveto
          0 -94 -55 -41 -114 0 rrcurveto
          endchar
        </CharString>
        <CharString name="U">
          86 323 -12 rmoveto
          134 0 102 73 0 210 rrcurveto
          0 385 rlineto
          -81 0 rlineto
          0 -387 rlineto
          0 -157 -68 -50 -87 0 rrcurveto
          -86 0 -66 50 0 157 rrcurveto
          0 387 rlineto
          -84 0 rlineto
          0 -385 rlineto
          0 -210 102 -73 134 0 rrcurveto
          endchar
        </CharString>
        <CharString name="U.sups">
          -129 217 386 rmoveto
          93 0 66 51 0 140 rrcurveto
          0 249 rlineto
          -60 0 rlineto
          0 -252 rlineto
          0 -101 -43 -32 -56 0 rrcurveto
          -57 0 -41 32 0 101 rrcurveto
          0 252 rlineto
          -63 0 rlineto
          0 -249 rlineto
          0 -140 65 -51 96 0 rrcurveto
          endchar
        </CharString>
        <CharString name="Uacute">
          86 323 -12 rmoveto
          134 0 102 73 0 210 rrcurveto
          0 385 rlineto
          -81 0 rlineto
          0 -387 rlineto
          0 -157 -68 -50 -87 0 rrcurveto
          -86 0 -66 50 0 157 rrcurveto
          0 387 rlineto
          -84 0 rlineto
          0 -385 rlineto
          0 -210 102 -73 134 0 rrcurveto
          -57 709 rmoveto
          186 115 rlineto
          -39 56 rlineto
          -179 -130 rlineto
          endchar
        </CharString>
        <CharString name="Ucircumflex">
          86 323 -12 rmoveto
          134 0 102 73 0 210 rrcurveto
          0 385 rlineto
          -81 0 rlineto
          0 -387 rlineto
          0 -157 -68 -50 -87 0 rrcurveto
          -86 0 -66 50 0 157 rrcurveto
          0 387 rlineto
          -84 0 rlineto
          0 -385 rlineto
          0 -210 102 -73 134 0 rrcurveto
          -113 711 rmoveto
          110 92 rlineto
          4 0 rlineto
          110 -92 rlineto
          36 26 rlineto
          -104 113 rlineto
          -88 0 rlineto
          -104 -113 rlineto
          endchar
        </CharString>
        <CharString name="Udieresis">
          86 323 -12 rmoveto
          134 0 102 73 0 210 rrcurveto
          0 385 rlineto
          -81 0 rlineto
          0 -387 rlineto
          0 -157 -68 -50 -87 0 rrcurveto
          -86 0 -66 50 0 157 rrcurveto
          0 387 rlineto
          -84 0 rlineto
          0 -385 rlineto
          0 -210 102 -73 134 0 rrcurveto
          -104 727 rmoveto
          29 0 20 21 0 28 rrcurveto
          0 29 -20 21 -29 0 rrcurveto
          -28 0 -21 -21 0 -29 rrcurveto
          0 -28 21 -21 28 0 rrcurveto
          206 0 rmoveto
          28 0 21 21 0 28 rrcurveto
          0 29 -21 21 -28 0 rrcurveto
          -29 0 -20 -21 0 -29 rrcurveto
          0 -28 20 -21 29 0 rrcurveto
          endchar
        </CharString>
        <CharString name="Ugrave">
          86 323 -12 rmoveto
          134 0 102 73 0 210 rrcurveto
          0 385 rlineto
          -81 0 rlineto
          0 -387 rlineto
          0 -157 -68 -50 -87 0 rrcurveto
          -86 0 -66 50 0 157 rrcurveto
          0 387 rlineto
          -84 0 rlineto
          0 -385 rlineto
          0 -210 102 -73 134 0 rrcurveto
          55 709 rmoveto
          32 41 rlineto
          -179 130 rlineto
          -39 -56 rlineto
          endchar
        </CharString>
        <CharString name="V">
          -44 206 0 rmoveto
          97 0 rlineto
          213 656 rlineto
          -86 0 rlineto
          -109 -354 rlineto
          -23 -77 -16 -63 -24 -76 rrcurveto
          -4 0 rlineto
          -24 76 -17 63 -22 77 rrcurveto
          -102 354 rlineto
          -89 0 rlineto
          endchar
        </CharString>
        <CharString name="V.sups">
          -214 137 394 rmoveto
          74 0 rlineto
          138 432 rlineto
          -65 0 rlineto
          -67 -227 rlineto
          -15 -50 -9 -41 -16 -51 rrcurveto
          -3 0 rlineto
          -15 51 -11 41 -15 50 rrcurveto
          -68 227 rlineto
          -67 0 rlineto
          endchar
        </CharString>
        <CharString name="W">
          226 162 0 rmoveto
          103 0 rlineto
          95 396 rlineto
          11 52 10 45 10 57 rrcurveto
          4 0 rlineto
          9 -57 8 -45 12 -52 rrcurveto
          97 -396 rlineto
          104 0 rlineto
          137 656 rlineto
          -81 0 rlineto
          -70 -357 rlineto
          -12 -71 -12 -70 -11 -74 rrcurveto
          -4 0 rlineto
          -14 74 -17 71 -16 70 rrcurveto
          -89 357 rlineto
          -83 0 rlineto
          -91 -357 rlineto
          -16 -71 -15 -70 -13 -74 rrcurveto
          -4 0 rlineto
          -12 74 -11 70 -13 71 rrcurveto
          -68 357 rlineto
          -87 0 rlineto
          endchar
        </CharString>
        <CharString name="W.sups">
          -34 105 395 rmoveto
          78 0 rlineto
          59 250 rlineto
          8 33 6 32 6 33 rrcurveto
          2 0 rlineto
          6 -33 6 -32 8 -33 rrcurveto
          61 -250 rlineto
          78 0 rlineto
          89 432 rlineto
          -60 0 rlineto
          -45 -229 rlineto
          -9 -47 -6 -39 -6 -54 rrcurveto
          -4 0 rlineto
          -10 54 -8 39 -12 47 rrcurveto
          -58 229 rlineto
          -59 0 rlineto
          -58 -229 rlineto
          -12 -47 -8 -39 -9 -54 rrcurveto
          -4 0 rlineto
          -7 54 -6 39 -9 47 rrcurveto
          -44 229 rlineto
          -65 0 rlineto
          endchar
        </CharString>
        <CharString name="X">
          -46 15 0 rmoveto
          89 0 rlineto
          94 176 rlineto
          17 33 16 33 19 40 rrcurveto
          4 0 rlineto
          21 -40 18 -33 17 -33 rrcurveto
          96 -176 rlineto
          93 0 rlineto
          -191 335 rlineto
          179 321 rlineto
          -89 0 rlineto
          -87 -167 rlineto
          -16 -30 -13 -27 -17 -39 rrcurveto
          -4 0 rlineto
          -21 39 -14 27 -16 30 rrcurveto
          -89 167 rlineto
          -93 0 rlineto
          178 -317 rlineto
          endchar
        </CharString>
        <CharString name="X.sups">
          -213 8 394 rmoveto
          67 0 rlineto
          59 112 rlineto
          11 22 12 21 12 27 rrcurveto
          3 0 rlineto
          14 -27 12 -21 11 -22 rrcurveto
          60 -112 rlineto
          69 0 rlineto
          -126 221 rlineto
          118 211 rlineto
          -67 0 rlineto
          -54 -105 rlineto
          -9 -20 -9 -18 -12 -26 rrcurveto
          -3 0 rlineto
          -14 26 -10 18 -10 20 rrcurveto
          -55 105 rlineto
          -70 0 rlineto
          118 -208 rlineto
          endchar
        </CharString>
        <CharString name="Y">
          -84 196 0 rmoveto
          84 0 rlineto
          0 254 rlineto
          198 402 rlineto
          -88 0 rlineto
          -84 -185 rlineto
          -20 -48 -23 -46 -22 -49 rrcurveto
          -4 0 rlineto
          -23 49 -20 46 -21 48 rrcurveto
          -84 185 rlineto
          -90 0 rlineto
          197 -402 rlineto
          endchar
        </CharString>
        <CharString name="Y.sups">
          -239 129 394 rmoveto
          63 0 rlineto
          0 166 rlineto
          132 266 rlineto
          -66 0 rlineto
          -53 -117 rlineto
          -13 -32 -14 -30 -15 -33 rrcurveto
          -3 0 rlineto
          -15 33 -13 30 -14 32 rrcurveto
          -54 117 rlineto
          -67 0 rlineto
          132 -266 rlineto
          endchar
        </CharString>
        <CharString name="Yacute">
          -84 196 0 rmoveto
          84 0 rlineto
          0 254 rlineto
          198 402 rlineto
          -88 0 rlineto
          -84 -185 rlineto
          -20 -48 -23 -46 -22 -49 rrcurveto
          -4 0 rlineto
          -23 49 -20 46 -21 48 rrcurveto
          -84 185 rlineto
          -90 0 rlineto
          197 -402 rlineto
          -14 443 rmoveto
          186 115 rlineto
          -39 56 rlineto
          -179 -130 rlineto
          endchar
        </CharString>
        <CharString name="Z">
          -21 45 0 rmoveto
          452 0 rlineto
          0 71 rlineto
          -348 0 rlineto
          345 535 rlineto
          0 50 rlineto
          -418 0 rlineto
          0 -71 rlineto
          313 0 rlineto
          -344 -535 rlineto
          endchar
        </CharString>
        <CharString name="Z.sups">
          -202 27 394 rmoveto
          305 0 rlineto
          0 53 rlineto
          -227 0 rlineto
          225 342 rlineto
          0 37 rlineto
          -283 0 rlineto
          0 -52 rlineto
          205 0 rlineto
          -225 -342 rlineto
          endchar
        </CharString>
        <CharString name="a">
          -56 194 -12 rmoveto
          61 0 53 31 46 39 rrcurveto
          3 0 rlineto
          8 -58 rlineto
          68 0 rlineto
          0 299 rlineto
          0 120 -51 79 -118 0 rrcurveto
          -78 0 -68 -33 -45 -30 rrcurveto
          32 -56 rlineto
          38 25 51 25 56 0 rrcurveto
          79 0 20 -59 1 -61 rrcurveto
          -208 -23 -90 -52 0 -108 rrcurveto
          0 -88 61 -50 81 0 rrcurveto
          23 68 rmoveto
          -47 0 -37 21 0 54 rrcurveto
          0 63 53 37 164 19 rrcurveto
          0 -132 rlineto
          -47 -41 -39 -21 -47 0 rrcurveto
          endchar
        </CharString>
        <CharString name="a.sups">
          -215 136 387 rmoveto
          41 0 33 21 27 24 rrcurveto
          4 0 rlineto
          7 -37 rlineto
          49 0 rlineto
          0 196 rlineto
          0 85 -34 48 -80 0 rrcurveto
          -52 0 -48 -22 -33 -20 rrcurveto
          23 -42 rlineto
          27 16 39 18 35 0 rrcurveto
          47 0 14 -31 1 -43 rrcurveto
          -139 -12 -60 -36 0 -71 rrcurveto
          0 -57 40 -37 59 0 rrcurveto
          18 49 rmoveto
          -35 0 -21 16 0 34 rrcurveto
          0 36 35 25 103 12 rrcurveto
          0 -83 rlineto
          -29 -27 -26 -13 -27 0 rrcurveto
          endchar
        </CharString>
        <CharString name="aacute">
          -55 194 -12 rmoveto
          61 0 53 31 46 39 rrcurveto
          3 0 rlineto
          8 -58 rlineto
          68 0 rlineto
          0 299 rlineto
          0 120 -51 79 -118 0 rrcurveto
          -78 0 -68 -33 -45 -30 rrcurveto
          32 -56 rlineto
          38 25 51 25 56 0 rrcurveto
          79 0 20 -59 1 -61 rrcurveto
          -208 -23 -90 -52 0 -108 rrcurveto
          0 -88 61 -50 81 0 rrcurveto
          23 68 rmoveto
          -47 0 -37 21 0 54 rrcurveto
          0 63 53 37 164 19 rrcurveto
          0 -132 rlineto
          -47 -41 -39 -21 -47 0 rrcurveto
          7 517 rmoveto
          179 153 rlineto
          -51 55 rlineto
          -170 -166 rlineto
          endchar
        </CharString>
        <CharString name="acircumflex">
          -55 194 -12 rmoveto
          61 0 53 31 46 39 rrcurveto
          3 0 rlineto
          8 -58 rlineto
          68 0 rlineto
          0 299 rlineto
          0 120 -51 79 -118 0 rrcurveto
          -78 0 -68 -33 -45 -30 rrcurveto
          32 -56 rlineto
          38 25 51 25 56 0 rrcurveto
          79 0 20 -59 1 -61 rrcurveto
          -208 -23 -90 -52 0 -108 rrcurveto
          0 -88 61 -50 81 0 rrcurveto
          23 68 rmoveto
          -47 0 -37 21 0 54 rrcurveto
          0 63 53 37 164 19 rrcurveto
          0 -132 rlineto
          -47 -41 -39 -21 -47 0 rrcurveto
          -70 512 rmoveto
          118 113 rlineto
          4 0 rlineto
          118 -113 rlineto
          35 32 rlineto
          -113 140 rlineto
          -84 0 rlineto
          -113 -140 rlineto
          endchar
        </CharString>
        <CharString name="acute">
          -18 228 573 rmoveto
          179 153 rlineto
          -51 55 rlineto
          -170 -166 rlineto
          endchar
        </CharString>
        <CharString name="adieresis">
          -55 194 -12 rmoveto
          61 0 53 31 46 39 rrcurveto
          3 0 rlineto
          8 -58 rlineto
          68 0 rlineto
          0 299 rlineto
          0 120 -51 79 -118 0 rrcurveto
          -78 0 -68 -33 -45 -30 rrcurveto
          32 -56 rlineto
          38 25 51 25 56 0 rrcurveto
          79 0 20 -59 1 -61 rrcurveto
          -208 -23 -90 -52 0 -108 rrcurveto
          0 -88 61 -50 81 0 rrcurveto
          23 68 rmoveto
          -47 0 -37 21 0 54 rrcurveto
          0 63 53 37 164 19 rrcurveto
          0 -132 rlineto
          -47 -41 -39 -21 -47 0 rrcurveto
          -46 531 rmoveto
          28 0 21 22 0 28 rrcurveto
          0 28 -21 22 -28 0 rrcurveto
          -29 0 -21 -22 0 -28 rrcurveto
          0 -28 21 -22 29 0 rrcurveto
          192 0 rmoveto
          29 0 21 22 0 28 rrcurveto
          0 28 -21 22 -29 0 rrcurveto
          -28 0 -21 -22 0 -28 rrcurveto
          0 -28 21 -22 28 0 rrcurveto
          endchar
        </CharString>
        <CharString name="ae">
          218 194 -12 rmoveto
          63 0 70 32 65 59 rrcurveto
          38 -49 52 -42 82 0 rrcurveto
          66 0 48 20 44 30 rrcurveto
          -30 53 rlineto
          -35 -24 -37 -12 -46 0 rrcurveto
          -83 0 -62 63 -7 103 rrcurveto
          315 0 rlineto
          2 12 2 19 0 17 rrcurveto
          0 139 -66 90 -119 0 rrcurveto
          -67 0 -57 -40 -36 -64 rrcurveto
          -19 64 -49 40 -72 0 rrcurveto
          -69 0 -69 -33 -45 -30 rrcurveto
          32 -56 rlineto
          38 25 51 25 52 0 rrcurveto
          80 0 20 -58 0 -62 rrcurveto
          -202 -22 -92 -53 0 -108 rrcurveto
          0 -88 61 -50 81 0 rrcurveto
          23 68 rmoveto
          -47 0 -37 21 0 55 rrcurveto
          0 63 57 36 155 19 rrcurveto
          1 -24 rlineto
          2 -37 6 -35 11 -26 rrcurveto
          -44 -47 -59 -25 -45 0 rrcurveto
          206 227 rmoveto
          10 87 53 62 68 0 rrcurveto
          71 0 42 -53 0 -96 rrcurveto
          endchar
        </CharString>
        <CharString name="agrave">
          -55 194 -12 rmoveto
          61 0 53 31 46 39 rrcurveto
          3 0 rlineto
          8 -58 rlineto
          68 0 rlineto
          0 299 rlineto
          0 120 -51 79 -118 0 rrcurveto
          -78 0 -68 -33 -45 -30 rrcurveto
          32 -56 rlineto
          38 25 51 25 56 0 rrcurveto
          79 0 20 -59 1 -61 rrcurveto
          -208 -23 -90 -52 0 -108 rrcurveto
          0 -88 61 -50 81 0 rrcurveto
          23 68 rmoveto
          -47 0 -37 21 0 54 rrcurveto
          0 63 53 37 164 19 rrcurveto
          0 -132 rlineto
          -47 -41 -39 -21 -47 0 rrcurveto
          93 517 rmoveto
          42 42 rlineto
          -170 166 rlineto
          -51 -55 rlineto
          endchar
        </CharString>
        <CharString name="ampersand">
          50 190 514 rmoveto
          0 54 31 41 49 0 rrcurveto
          44 0 18 -34 0 -38 rrcurveto
          0 -58 -51 -40 -60 -40 rrcurveto
          -20 40 -11 39 0 36 rrcurveto
          42 -526 rmoveto
          77 0 62 30 51 45 rrcurveto
          53 -37 51 -25 46 -13 rrcurveto
          23 69 rlineto
          -36 10 -42 22 -45 30 rrcurveto
          52 69 38 80 25 86 rrcurveto
          -78 0 rlineto
          -20 -75 -31 -65 -41 -53 rrcurveto
          -62 51 -60 65 -43 67 rrcurveto
          72 53 75 55 0 86 rrcurveto
          0 77 -48 53 -81 0 rrcurveto
          -91 0 -61 -68 0 -88 rrcurveto
          0 -47 16 -53 27 -52 rrcurveto
          -67 -47 -62 -55 0 -88 rrcurveto
          0 -106 81 -76 119 0 rrcurveto
          -119 187 rmoveto
          0 51 36 39 46 37 rrcurveto
          45 -71 62 -68 65 -56 rrcurveto
          -39 -32 -42 -21 -44 0 rrcurveto
          -72 0 -57 48 0 73 rrcurveto
          endchar
        </CharString>
        <CharString name="aring">
          -55 194 -12 rmoveto
          61 0 53 31 46 39 rrcurveto
          3 0 rlineto
          8 -58 rlineto
          68 0 rlineto
          0 299 rlineto
          0 120 -51 79 -118 0 rrcurveto
          -78 0 -68 -33 -45 -30 rrcurveto
          32 -56 rlineto
          38 25 51 25 56 0 rrcurveto
          79 0 20 -59 1 -61 rrcurveto
          -208 -23 -90 -52 0 -108 rrcurveto
          0 -88 61 -50 81 0 rrcurveto
          23 68 rmoveto
          -47 0 -37 21 0 54 rrcurveto
          0 63 53 37 164 19 rrcurveto
          0 -132 rlineto
          -47 -41 -39 -21 -47 0 rrcurveto
          50 498 rmoveto
          68 0 42 42 0 57 rrcurveto
          0 56 -42 42 -68 0 rrcurveto
          -68 0 -42 -42 0 -56 rrcurveto
          0 -57 42 -42 68 0 rrcurveto
          0 37 rmoveto
          -32 0 -25 24 0 38 rrcurveto
          0 37 25 24 32 0 rrcurveto
          32 0 25 -24 0 -37 rrcurveto
          0 -38 -25 -24 -32 0 rrcurveto
          endchar
        </CharString>
        <CharString name="asciicircum">
          -63 60 284 rmoveto
          72 0 rlineto
          66 175 rlineto
          49 133 rlineto
          4 0 rlineto
          49 -133 rlineto
          65 -175 rlineto
          73 0 rlineto
          -153 386 rlineto
          -73 0 rlineto
          endchar
        </CharString>
        <CharString name="asciitilde">
          -63 336 257 rmoveto
          44 0 45 26 36 63 rrcurveto
          -46 34 rlineto
          -23 -43 -25 -18 -29 0 rrcurveto
          -56 0 -42 84 -79 0 rrcurveto
          -43 0 -46 -26 -36 -64 rrcurveto
          47 -33 rlineto
          22 43 25 18 29 0 rrcurveto
          56 0 42 -84 79 0 rrcurveto
          endchar
        </CharString>
        <CharString name="asterisk">
          -142 138 419 rmoveto
          72 86 rlineto
          70 -86 rlineto
          40 29 rlineto
          -57 94 rlineto
          98 41 rlineto
          -15 46 rlineto
          -103 -24 rlineto
          -9 107 rlineto
          -50 0 rlineto
          -9 -108 rlineto
          -102 25 rlineto
          -15 -46 rlineto
          97 -41 rlineto
          -57 -94 rlineto
          endchar
        </CharString>
        <CharString name="at">
          286 402 -155 rmoveto
          70 0 62 17 59 34 rrcurveto
          -25 54 rlineto
          -44 -25 -55 -17 -60 0 rrcurveto
          -166 0 -124 108 0 190 rrcurveto
          0 228 168 149 174 0 rrcurveto
          176 0 93 -115 0 -156 rrcurveto
          0 -127 -68 -76 -58 0 rrcurveto
          -52 0 -17 36 17 77 rrcurveto
          40 203 rlineto
          -58 0 rlineto
          -11 -40 rlineto
          -3 0 rlineto
          -18 34 -24 15 -41 0 rrcurveto
          -116 0 -77 -128 0 -108 rrcurveto
          0 -95 55 -50 69 0 rrcurveto
          45 0 45 29 31 40 rrcurveto
          3 0 rlineto
          8 -50 41 -26 55 0 rrcurveto
          92 0 110 92 0 177 rrcurveto
          0 197 -127 134 -204 0 rrcurveto
          -225 0 -194 -175 0 -268 rrcurveto
          0 -233 158 -125 196 0 rrcurveto
          -18 271 rmoveto
          -37 0 -29 26 0 61 rrcurveto
          0 74 48 93 75 0 rrcurveto
          27 0 18 -10 20 -31 rrcurveto
          -29 -155 rlineto
          -35 -41 -29 -17 -29 0 rrcurveto
          endchar
        </CharString>
        <CharString name="atilde">
          -55 194 -12 rmoveto
          61 0 53 31 46 39 rrcurveto
          3 0 rlineto
          8 -58 rlineto
          68 0 rlineto
          0 299 rlineto
          0 120 -51 79 -118 0 rrcurveto
          -78 0 -68 -33 -45 -30 rrcurveto
          32 -56 rlineto
          38 25 51 25 56 0 rrcurveto
          79 0 20 -59 1 -61 rrcurveto
          -208 -23 -90 -52 0 -108 rrcurveto
          0 -88 61 -50 81 0 rrcurveto
          23 68 rmoveto
          -47 0 -37 21 0 54 rrcurveto
          0 63 53 37 164 19 rrcurveto
          0 -132 rlineto
          -47 -41 -39 -21 -47 0 rrcurveto
          122 521 rmoveto
          69 0 29 58 3 77 rrcurveto
          -55 4 rlineto
          -3 -46 -14 -33 -29 0 rrcurveto
          -47 0 -26 84 -71 0 rrcurveto
          -69 0 -29 -58 -3 -78 rrcurveto
          55 -3 rlineto
          3 47 14 32 30 0 rrcurveto
          46 0 26 -84 71 0 rrcurveto
          endchar
        </CharString>
        <CharString name="b">
          -6 297 -12 rmoveto
          111 0 100 97 0 166 rrcurveto
          0 150 -68 97 -125 0 rrcurveto
          -54 0 -54 -29 -45 -38 rrcurveto
          3 87 rlineto
          0 194 rlineto
          -83 0 rlineto
          0 -712 rlineto
          66 0 rlineto
          8 50 rlineto
          3 0 rlineto
          43 -39 50 -23 45 0 rrcurveto
          -14 70 rmoveto
          -32 0 -44 13 -42 37 rrcurveto
          0 254 rlineto
          46 44 42 22 41 0 rrcurveto
          91 0 37 -71 0 -107 rrcurveto
          0 -120 -59 -72 -80 0 rrcurveto
          endchar
        </CharString>
        <CharString name="b.sups">
          -186 202 386 rmoveto
          73 0 66 64 0 111 rrcurveto
          0 99 -46 64 -84 0 rrcurveto
          -37 0 -33 -20 -30 -25 rrcurveto
          3 58 rlineto
          0 126 rlineto
          -62 0 rlineto
          0 -469 rlineto
          48 0 rlineto
          6 33 rlineto
          4 0 rlineto
          27 -27 35 -14 30 0 rrcurveto
          -10 52 rmoveto
          -23 0 -28 9 -27 22 rrcurveto
          0 161 rlineto
          28 27 28 15 26 0 rrcurveto
          56 0 25 -42 0 -69 rrcurveto
          0 -79 -37 -44 -48 0 rrcurveto
          endchar
        </CharString>
        <CharString name="backslash">
          -210 280 -160 rmoveto
          60 0 rlineto
          -266 870 rlineto
          -60 0 rlineto
          endchar
        </CharString>
        <CharString name="bar">
          -318 92 -250 rmoveto
          58 0 rlineto
          0 1000 rlineto
          -58 0 rlineto
          endchar
        </CharString>
        <CharString name="braceleft">
          -256 228 -152 rmoveto
          45 0 rlineto
          0 47 rlineto
          -26 0 rlineto
          -54 0 -14 27 0 64 rrcurveto
          0 61 5 52 0 68 rrcurveto
          0 64 -16 33 -44 12 rrcurveto
          0 4 rlineto
          44 12 16 32 0 65 rrcurveto
          0 68 -5 52 0 61 rrcurveto
          0 64 14 27 54 0 rrcurveto
          26 0 rlineto
          0 47 rlineto
          -45 0 rlineto
          -79 0 -38 -30 0 -103 rrcurveto
          0 -73 9 -53 0 -68 rrcurveto
          0 -38 -18 -38 -68 -1 rrcurveto
          0 -52 rlineto
          68 -1 18 -38 0 -39 rrcurveto
          0 -67 -9 -53 0 -73 rrcurveto
          0 -103 38 -30 79 0 rrcurveto
          endchar
        </CharString>
        <CharString name="braceright">
          -256 31 -152 rmoveto
          45 0 rlineto
          79 0 38 30 0 103 rrcurveto
          0 73 -9 53 0 67 rrcurveto
          0 39 18 38 68 1 rrcurveto
          0 52 rlineto
          -68 1 -18 38 0 38 rrcurveto
          0 68 9 53 0 73 rrcurveto
          0 103 -38 30 -79 0 rrcurveto
          -45 0 rlineto
          0 -47 rlineto
          26 0 rlineto
          54 0 14 -27 0 -64 rrcurveto
          0 -61 -5 -52 0 -68 rrcurveto
          0 -65 16 -32 43 -12 rrcurveto
          0 -4 rlineto
          -43 -12 -16 -33 0 -64 rrcurveto
          0 -68 5 -52 0 -61 rrcurveto
          0 -64 -14 -27 -54 0 rrcurveto
          -26 0 rlineto
          endchar
        </CharString>
        <CharString name="bracketleft">
          -256 94 -152 rmoveto
          179 0 rlineto
          0 47 rlineto
          -116 0 rlineto
          0 766 rlineto
          116 0 rlineto
          0 47 rlineto
          -179 0 rlineto
          endchar
        </CharString>
        <CharString name="bracketright">
          -256 31 -152 rmoveto
          179 0 rlineto
          0 860 rlineto
          -179 0 rlineto
          0 -47 rlineto
          116 0 rlineto
          0 -766 rlineto
          -116 0 rlineto
          endchar
        </CharString>
        <CharString name="brokenbar">
          -318 92 291 rmoveto
          58 0 rlineto
          0 459 rlineto
          -58 0 rlineto
          0 -1000 rmoveto
          58 0 rlineto
          0 464 rlineto
          -58 0 rlineto
          endchar
        </CharString>
        <CharString name="c">
          -104 274 -12 rmoveto
          58 0 55 22 44 40 rrcurveto
          -36 53 rlineto
          -29 -26 -40 -20 -45 0 rrcurveto
          -89 0 -60 74 0 111 rrcurveto
          0 112 64 75 88 0 rrcurveto
          39 0 31 -15 27 -25 rrcurveto
          41 52 rlineto
          -34 32 -44 25 -64 0 rrcurveto
          -125 0 -109 -93 0 -163 rrcurveto
          0 -161 99 -93 129 0 rrcurveto
          endchar
        </CharString>
        <CharString name="c.sups">
          -254 184 386 rmoveto
          50 0 33 19 23 19 rrcurveto
          -26 41 rlineto
          -19 -15 -21 -12 -34 0 rrcurveto
          -57 0 -39 48 0 69 rrcurveto
          0 70 41 48 55 0 rrcurveto
          29 0 16 -9 20 -16 rrcurveto
          30 41 rlineto
          -20 17 -32 18 -47 0 rrcurveto
          -83 0 -73 -62 0 -107 rrcurveto
          0 -107 65 -62 89 0 rrcurveto
          endchar
        </CharString>
        <CharString name="ccedilla">
          -104 179 -226 rmoveto
          106 5 59 28 0 58 rrcurveto
          0 41 -27 19 -46 11 rrcurveto
          23 53 rlineto
          51 4 47 22 39 35 rrcurveto
          -36 53 rlineto
          -29 -26 -40 -20 -45 0 rrcurveto
          -89 0 -60 74 0 111 rrcurveto
          0 112 64 75 88 0 rrcurveto
          39 0 31 -15 27 -25 rrcurveto
          41 52 rlineto
          -34 32 -44 25 -64 0 rrcurveto
          -125 0 -109 -93 0 -163 rrcurveto
          0 -147 82 -90 112 -15 rrcurveto
          -37 -78 rlineto
          57 -8 20 -14 0 -26 rrcurveto
          0 -29 -25 -15 -84 -6 rrcurveto
          endchar
        </CharString>
        <CharString name="cedilla">
          -18 190 -226 rmoveto
          106 5 59 28 0 58 rrcurveto
          0 41 -27 19 -46 11 rrcurveto
          29 67 rlineto
          -54 0 rlineto
          -43 -91 rlineto
          57 -8 20 -14 0 -26 rrcurveto
          0 -29 -25 -15 -84 -6 rrcurveto
          endchar
        </CharString>
        <CharString name="cent">
          -63 262 -33 rmoveto
          52 0 rlineto
          0 103 rlineto
          52 4 49 23 40 35 rrcurveto
          -37 53 rlineto
          -27 -23 -35 -21 -42 -3 rrcurveto
          0 343 rlineto
          35 -2 29 -16 27 -23 rrcurveto
          40 52 rlineto
          -31 29 -42 26 -58 3 rrcurveto
          0 103 rlineto
          -52 0 rlineto
          0 -106 rlineto
          -113 -16 -88 -83 0 -138 rrcurveto
          0 -141 82 -84 119 -14 rrcurveto
          -119 239 rmoveto
          0 86 46 62 73 18 rrcurveto
          0 -333 rlineto
          -74 16 -45 63 0 88 rrcurveto
          endchar
        </CharString>
        <CharString name="colon">
          -310 125 348 rmoveto
          33 0 27 26 0 37 rrcurveto
          0 38 -27 26 -33 0 rrcurveto
          -33 0 -27 -26 0 -38 rrcurveto
          0 -37 27 -26 33 0 rrcurveto
          0 -360 rmoveto
          33 0 27 26 0 37 rrcurveto
          0 38 -27 26 -33 0 rrcurveto
          -33 0 -27 -26 0 -38 rrcurveto
          0 -37 27 -26 33 0 rrcurveto
          endchar
        </CharString>
        <CharString name="colon.sups">
          -383 89 386 rmoveto
          26 0 20 19 0 28 rrcurveto
          0 29 -20 20 -26 0 rrcurveto
          -27 0 -19 -20 0 -29 rrcurveto
          0 -28 19 -19 27 0 rrcurveto
          0 225 rmoveto
          26 0 20 19 0 28 rrcurveto
          0 29 -20 20 -26 0 rrcurveto
          -27 0 -19 -20 0 -29 rrcurveto
          0 -28 19 -19 27 0 rrcurveto
          endchar
        </CharString>
        <CharString name="comma">
          -310 67 -170 rmoveto
          82 33 50 68 0 86 rrcurveto
          0 61 -26 37 -44 0 rrcurveto
          -33 0 -28 -22 0 -36 rrcurveto
          0 -38 27 -20 32 0 rrcurveto
          4 0 3 0 4 1 rrcurveto
          0 -53 -34 -44 -57 -25 rrcurveto
          endchar
        </CharString>
        <CharString name="comma.dnom">
          -383 49 -116 rmoveto
          59 22 37 49 0 59 rrcurveto
          0 48 -21 26 -33 0 rrcurveto
          -25 0 -22 -18 0 -28 rrcurveto
          0 -29 22 -14 24 0 rrcurveto
          2 0 3 0 2 1 rrcurveto
          0 -37 -24 -27 -40 -15 rrcurveto
          endchar
        </CharString>
        <CharString name="comma.numr">
          -383 49 150 rmoveto
          59 22 37 49 0 59 rrcurveto
          0 48 -21 26 -33 0 rrcurveto
          -25 0 -22 -18 0 -28 rrcurveto
          0 -29 22 -14 24 0 rrcurveto
          2 0 3 0 2 1 rrcurveto
          0 -37 -24 -27 -40 -15 rrcurveto
          endchar
        </CharString>
        <CharString name="comma.sups">
          -383 49 278 rmoveto
          59 22 37 49 0 59 rrcurveto
          0 48 -21 26 -33 0 rrcurveto
          -25 0 -22 -18 0 -28 rrcurveto
          0 -29 22 -14 24 0 rrcurveto
          2 0 3 0 2 1 rrcurveto
          0 -37 -24 -27 -40 -15 rrcurveto
          endchar
        </CharString>
        <CharString name="copyright">
          184 372 -11 rmoveto
          174 0 149 130 0 204 rrcurveto
          0 203 -149 127 -174 0 rrcurveto
          -174 0 -149 -127 0 -203 rrcurveto
          0 -204 149 -130 174 0 rrcurveto
          0 42 rmoveto
          -151 0 -125 117 0 175 rrcurveto
          0 174 125 115 151 0 rrcurveto
          151 0 125 -115 0 -174 rrcurveto
          0 -175 -125 -117 -151 0 rrcurveto
          8 94 rmoveto
          60 0 38 23 36 35 rrcurveto
          -32 40 rlineto
          -29 -26 -24 -16 -46 0 rrcurveto
          -72 0 -46 52 0 83 rrcurveto
          0 83 49 57 72 0 rrcurveto
          35 0 29 -14 23 -26 rrcurveto
          36 37 rlineto
          -30 33 -40 26 -56 0 rrcurveto
          -97 0 -88 -75 0 -121 rrcurveto
          0 -120 80 -71 102 0 rrcurveto
          endchar
        </CharString>
        <CharString name="currency">
          -63 71 102 rmoveto
          67 69 rlineto
          32 -24 38 -13 41 0 rrcurveto
          39 0 40 13 31 24 rrcurveto
          68 -69 rlineto
          44 46 rlineto
          -64 65 rlineto
          22 31 14 39 0 46 rrcurveto
          0 46 -13 40 -23 31 rrcurveto
          64 65 rlineto
          -44 46 rlineto
          -68 -69 rlineto
          -31 23 -39 13 -40 0 rrcurveto
          -41 0 -39 -13 -31 -23 rrcurveto
          -67 69 rlineto
          -45 -46 rlineto
          64 -65 rlineto
          -23 -31 -13 -40 0 -46 rrcurveto
          0 -46 13 -39 23 -31 rrcurveto
          -64 -65 rlineto
          223 48 rmoveto
          -65 0 -53 53 0 80 rrcurveto
          0 79 53 55 65 0 rrcurveto
          64 0 54 -55 0 -79 rrcurveto
          0 -80 -54 -53 -64 0 rrcurveto
          endchar
        </CharString>
        <CharString name="d">
          -5 248 -12 rmoveto
          57 0 52 32 38 37 rrcurveto
          3 0 rlineto
          7 -57 rlineto
          68 0 rlineto
          0 712 rlineto
          -83 0 rlineto
          0 -187 rlineto
          4 -83 rlineto
          -43 35 -37 21 -56 0 rrcurveto
          -111 0 -100 -98 0 -158 rrcurveto
          0 -162 79 -92 122 0 rrcurveto
          18 70 rmoveto
          -85 0 -48 69 0 116 rrcurveto
          0 111 62 74 77 0 rrcurveto
          40 0 37 -13 41 -37 rrcurveto
          0 -254 rlineto
          -40 -44 -39 -22 -45 0 rrcurveto
          endchar
        </CharString>
        <CharString name="d.sups">
          -186 170 386 rmoveto
          37 0 29 20 26 23 rrcurveto
          3 0 rlineto
          7 -35 rlineto
          50 0 rlineto
          0 469 rlineto
          -62 0 rlineto
          0 -119 rlineto
          3 -56 rlineto
          -27 22 -28 14 -35 0 rrcurveto
          -72 0 -68 -62 0 -101 rrcurveto
          0 -111 52 -64 85 0 rrcurveto
          14 52 rmoveto
          -59 0 -28 44 0 79 rrcurveto
          0 67 40 45 46 0 rrcurveto
          24 0 26 -9 27 -23 rrcurveto
          0 -162 rlineto
          -27 -27 -23 -14 -26 0 rrcurveto
          endchar
        </CharString>
        <CharString name="degree">
          -228 166 429 rmoveto
          67 0 59 50 0 77 rrcurveto
          0 79 -59 50 -67 0 rrcurveto
          -67 0 -58 -50 0 -79 rrcurveto
          0 -77 58 -50 67 0 rrcurveto
          0 46 rmoveto
          -44 0 -31 34 0 47 rrcurveto
          0 48 31 35 44 0 rrcurveto
          44 0 31 -35 0 -48 rrcurveto
          0 -47 -31 -34 -44 0 rrcurveto
          endchar
        </CharString>
        <CharString name="dieresis">
          -18 175 587 rmoveto
          28 0 21 22 0 28 rrcurveto
          0 28 -21 22 -28 0 rrcurveto
          -29 0 -21 -22 0 -28 rrcurveto
          0 -28 21 -22 29 0 rrcurveto
          192 0 rmoveto
          29 0 21 22 0 28 rrcurveto
          0 28 -21 22 -29 0 rrcurveto
          -28 0 -21 -22 0 -28 rrcurveto
          0 -28 21 -22 28 0 rrcurveto
          endchar
        </CharString>
        <CharString name="divide">
          -63 34 299 rmoveto
          429 0 rlineto
          0 62 rlineto
          -429 0 rlineto
          215 -266 rmoveto
          30 0 24 23 0 32 rrcurveto
          0 31 -24 22 -30 0 rrcurveto
          -31 0 -24 -22 0 -31 rrcurveto
          0 -32 24 -23 31 0 rrcurveto
          0 360 rmoveto
          30 0 24 23 0 32 rrcurveto
          0 31 -24 22 -30 0 rrcurveto
          -31 0 -24 -22 0 -31 rrcurveto
          0 -32 24 -23 31 0 rrcurveto
          endchar
        </CharString>
        <CharString name="dollar">
          -63 222 -110 rmoveto
          61 0 rlineto
          0 101 rlineto
          94 14 60 69 0 97 rrcurveto
          0 190 -279 -5 0 129 rrcurveto
          0 57 39 39 60 0 rrcurveto
          54 0 37 -20 32 -35 rrcurveto
          45 45 rlineto
          -34 41 -45 30 -63 7 rrcurveto
          0 99 rlineto
          -61 0 rlineto
          0 -101 rlineto
          -87 -13 -58 -64 0 -89 rrcurveto
          0 -179 279 3 0 -140 rrcurveto
          0 -65 -37 -43 -74 0 rrcurveto
          -61 0 -51 24 -42 39 rrcurveto
          -39 -51 rlineto
          40 -46 62 -29 68 -5 rrcurveto
          endchar
        </CharString>
        <CharString name="e">
          -64 278 -12 rmoveto
          67 0 52 20 42 30 rrcurveto
          -29 53 rlineto
          -34 -23 -41 -13 -47 0 rrcurveto
          -92 0 -61 66 -7 100 rrcurveto
          327 0 rlineto
          3 16 1 15 0 18 rrcurveto
          0 140 -71 88 -124 0 rrcurveto
          -111 0 -107 -97 0 -158 rrcurveto
          0 -161 102 -94 130 0 rrcurveto
          -150 297 rmoveto
          10 93 60 54 68 0 rrcurveto
          74 0 45 -51 0 -96 rrcurveto
          endchar
        </CharString>
        <CharString name="e.sups">
          -224 186 386 rmoveto
          44 0 37 16 31 21 rrcurveto
          -22 39 rlineto
          -22 -15 -30 -11 -31 0 rrcurveto
          -59 0 -41 40 -3 63 rrcurveto
          216 0 rlineto
          3 14 1 9 0 15 rrcurveto
          0 63 -31 84 -101 0 rrcurveto
          -81 0 -69 -65 0 -103 rrcurveto
          0 -108 70 -62 88 0 rrcurveto
          -96 198 rmoveto
          7 55 33 35 49 0 rrcurveto
          56 0 19 -48 0 -42 rrcurveto
          endchar
        </CharString>
        <CharString name="eacute">
          -64 278 -12 rmoveto
          67 0 52 20 42 30 rrcurveto
          -29 53 rlineto
          -34 -23 -41 -13 -47 0 rrcurveto
          -92 0 -61 66 -7 100 rrcurveto
          327 0 rlineto
          3 16 1 15 0 18 rrcurveto
          0 140 -71 88 -124 0 rrcurveto
          -111 0 -107 -97 0 -158 rrcurveto
          0 -161 102 -94 130 0 rrcurveto
          -150 297 rmoveto
          10 93 60 54 68 0 rrcurveto
          74 0 45 -51 0 -96 rrcurveto
          -164 288 rmoveto
          179 153 rlineto
          -51 55 rlineto
          -170 -166 rlineto
          endchar
        </CharString>
        <CharString name="eacute.sups">
          -224 139 766 rmoveto
          131 110 rlineto
          -39 40 rlineto
          -123 -119 rlineto
          78 -411 rmoveto
          44 0 37 16 31 21 rrcurveto
          -22 39 rlineto
          -22 -15 -30 -11 -31 0 rrcurveto
          -59 0 -41 40 -3 63 rrcurveto
          216 0 rlineto
          3 14 1 9 0 15 rrcurveto
          0 63 -31 84 -101 0 rrcurveto
          -81 0 -69 -65 0 -103 rrcurveto
          0 -108 70 -62 88 0 rrcurveto
          -96 198 rmoveto
          7 55 33 35 49 0 rrcurveto
          56 0 19 -48 0 -42 rrcurveto
          endchar
        </CharString>
        <CharString name="ecircumflex">
          -64 278 -12 rmoveto
          67 0 52 20 42 30 rrcurveto
          -29 53 rlineto
          -34 -23 -41 -13 -47 0 rrcurveto
          -92 0 -61 66 -7 100 rrcurveto
          327 0 rlineto
          3 16 1 15 0 18 rrcurveto
          0 140 -71 88 -124 0 rrcurveto
          -111 0 -107 -97 0 -158 rrcurveto
          0 -161 102 -94 130 0 rrcurveto
          -150 297 rmoveto
          10 93 60 54 68 0 rrcurveto
          74 0 45 -51 0 -96 rrcurveto
          -241 283 rmoveto
          118 113 rlineto
          4 0 rlineto
          118 -113 rlineto
          35 32 rlineto
          -113 140 rlineto
          -84 0 rlineto
          -113 -140 rlineto
          endchar
        </CharString>
        <CharString name="edieresis">
          -64 278 -12 rmoveto
          67 0 52 20 42 30 rrcurveto
          -29 53 rlineto
          -34 -23 -41 -13 -47 0 rrcurveto
          -92 0 -61 66 -7 100 rrcurveto
          327 0 rlineto
          3 16 1 15 0 18 rrcurveto
          0 140 -71 88 -124 0 rrcurveto
          -111 0 -107 -97 0 -158 rrcurveto
          0 -161 102 -94 130 0 rrcurveto
          -150 297 rmoveto
          10 93 60 54 68 0 rrcurveto
          74 0 45 -51 0 -96 rrcurveto
          -217 302 rmoveto
          28 0 21 22 0 28 rrcurveto
          0 28 -21 22 -28 0 rrcurveto
          -29 0 -21 -22 0 -28 rrcurveto
          0 -28 21 -22 29 0 rrcurveto
          192 0 rmoveto
          29 0 21 22 0 28 rrcurveto
          0 28 -21 22 -29 0 rrcurveto
          -28 0 -21 -22 0 -28 rrcurveto
          0 -28 21 -22 28 0 rrcurveto
          endchar
        </CharString>
        <CharString name="egrave">
          -64 278 -12 rmoveto
          67 0 52 20 42 30 rrcurveto
          -29 53 rlineto
          -34 -23 -41 -13 -47 0 rrcurveto
          -92 0 -61 66 -7 100 rrcurveto
          327 0 rlineto
          3 16 1 15 0 18 rrcurveto
          0 140 -71 88 -124 0 rrcurveto
          -111 0 -107 -97 0 -158 rrcurveto
          0 -161 102 -94 130 0 rrcurveto
          -150 297 rmoveto
          10 93 60 54 68 0 rrcurveto
          74 0 45 -51 0 -96 rrcurveto
          -78 288 rmoveto
          42 42 rlineto
          -170 166 rlineto
          -51 -55 rlineto
          endchar
        </CharString>
        <CharString name="egrave.sups">
          -224 211 766 rmoveto
          31 31 rlineto
          -123 119 rlineto
          -39 -40 rlineto
          106 -491 rmoveto
          44 0 37 16 31 21 rrcurveto
          -22 39 rlineto
          -22 -15 -30 -11 -31 0 rrcurveto
          -59 0 -41 40 -3 63 rrcurveto
          216 0 rlineto
          3 14 1 9 0 15 rrcurveto
          0 63 -31 84 -101 0 rrcurveto
          -81 0 -69 -65 0 -103 rrcurveto
          0 -108 70 -62 88 0 rrcurveto
          -96 198 rmoveto
          7 55 33 35 49 0 rrcurveto
          56 0 19 -48 0 -42 rrcurveto
          endchar
        </CharString>
        <CharString name="eight">
          -63 250 -12 rmoveto
          124 0 82 75 0 95 rrcurveto
          0 86 -54 45 -57 33 rrcurveto
          0 4 rlineto
          40 30 48 57 0 67 rrcurveto
          0 99 -69 71 -111 0 rrcurveto
          -103 0 -78 -66 0 -98 rrcurveto
          0 -67 42 -47 47 -33 rrcurveto
          0 -4 rlineto
          -60 -32 -60 -57 0 -83 rrcurveto
          0 -101 89 -74 120 0 rrcurveto
          45 360 rmoveto
          -77 30 -70 32 0 76 rrcurveto
          0 62 44 40 59 0 rrcurveto
          70 0 41 -50 0 -62 rrcurveto
          0 -47 -24 -43 -43 -38 rrcurveto
          -43 -298 rmoveto
          -78 0 -58 51 0 70 rrcurveto
          0 58 38 47 50 33 rrcurveto
          92 -37 81 -29 0 -82 rrcurveto
          0 -66 -51 -45 -74 0 rrcurveto
          endchar
        </CharString>
        <CharString name="eight.dnom">
          -193 182 -12 rmoveto
          79 0 59 49 0 63 rrcurveto
          0 47 -28 31 -44 23 rrcurveto
          0 4 rlineto
          26 18 33 31 0 45 rrcurveto
          0 63 -55 40 -70 0 rrcurveto
          -67 0 -54 -41 0 -62 rrcurveto
          0 -41 24 -26 34 -22 rrcurveto
          0 -4 rlineto
          -38 -22 -36 -38 0 -49 rrcurveto
          0 -59 55 -50 82 0 rrcurveto
          23 235 rmoveto
          -47 15 -38 20 0 40 rrcurveto
          0 32 28 23 34 0 rrcurveto
          36 0 29 -22 0 -34 rrcurveto
          0 -26 -13 -26 -29 -22 rrcurveto
          -23 -188 rmoveto
          -46 0 -31 33 0 35 rrcurveto
          0 32 19 28 35 21 rrcurveto
          53 -22 48 -12 0 -48 rrcurveto
          0 -37 -35 -30 -43 0 rrcurveto
          endchar
        </CharString>
        <CharString name="eight.numr">
          -193 182 254 rmoveto
          79 0 59 49 0 63 rrcurveto
          0 47 -28 31 -44 23 rrcurveto
          0 4 rlineto
          26 18 33 31 0 45 rrcurveto
          0 63 -55 40 -70 0 rrcurveto
          -67 0 -54 -41 0 -62 rrcurveto
          0 -41 24 -26 34 -22 rrcurveto
          0 -4 rlineto
          -38 -22 -36 -38 0 -49 rrcurveto
          0 -59 55 -50 82 0 rrcurveto
          23 235 rmoveto
          -47 15 -38 20 0 40 rrcurveto
          0 32 28 23 34 0 rrcurveto
          36 0 29 -22 0 -34 rrcurveto
          0 -26 -13 -26 -29 -22 rrcurveto
          -23 -188 rmoveto
          -46 0 -31 33 0 35 rrcurveto
          0 32 19 28 35 21 rrcurveto
          53 -22 48 -12 0 -48 rrcurveto
          0 -37 -35 -30 -43 0 rrcurveto
          endchar
        </CharString>
        <CharString name="eight.sups">
          -193 182 382 rmoveto
          79 0 59 49 0 63 rrcurveto
          0 47 -28 31 -44 23 rrcurveto
          0 4 rlineto
          26 18 33 31 0 45 rrcurveto
          0 63 -55 40 -70 0 rrcurveto
          -67 0 -54 -41 0 -62 rrcurveto
          0 -41 24 -26 34 -22 rrcurveto
          0 -4 rlineto
          -38 -22 -36 -38 0 -49 rrcurveto
          0 -59 55 -50 82 0 rrcurveto
          23 235 rmoveto
          -47 15 -38 20 0 40 rrcurveto
          0 32 28 23 34 0 rrcurveto
          36 0 29 -22 0 -34 rrcurveto
          0 -26 -13 -26 -29 -22 rrcurveto
          -23 -188 rmoveto
          -46 0 -31 33 0 35 rrcurveto
          0 32 19 28 35 21 rrcurveto
          53 -22 48 -12 0 -48 rrcurveto
          0 -37 -35 -30 -43 0 rrcurveto
          endchar
        </CharString>
        <CharString name="equal">
          -63 34 406 rmoveto
          429 0 rlineto
          0 62 rlineto
          -429 0 rlineto
          0 -276 rmoveto
          429 0 rlineto
          0 62 rlineto
          -429 0 rlineto
          endchar
        </CharString>
        <CharString name="equal.sups">
          -193 30 651 rmoveto
          307 0 rlineto
          0 53 rlineto
          -307 0 rlineto
          0 -221 rmoveto
          307 0 rlineto
          0 53 rlineto
          -307 0 rlineto
          endchar
        </CharString>
        <CharString name="eth">
          -15 131 222 rmoveto
          0 92 51 68 89 0 rrcurveto
          45 0 44 -14 43 -57 rrcurveto
          1 -18 1 -19 0 -20 rrcurveto
          0 -117 -45 -80 -89 0 rrcurveto
          -76 0 -64 65 0 100 rrcurveto
          138 -234 rmoveto
          130 0 86 109 0 160 rrcurveto
          0 157 -56 110 -80 81 rrcurveto
          129 66 rlineto
          -24 41 rlineto
          -142 -73 rlineto
          -43 36 -47 29 -48 26 rrcurveto
          -37 -52 rlineto
          41 -22 37 -24 33 -26 rrcurveto
          -127 -65 rlineto
          24 -42 rlineto
          142 73 rlineto
          50 -49 36 -60 19 -80 rrcurveto
          -34 44 -49 20 -50 0 rrcurveto
          -116 0 -90 -89 0 -136 rrcurveto
          0 -145 103 -89 113 0 rrcurveto
          endchar
        </CharString>
        <CharString name="exclam">
          -270 116 199 rmoveto
          57 0 rlineto
          12 377 rlineto
          2 94 rlineto
          -84 0 rlineto
          2 -94 rlineto
          40 -588 rmoveto
          33 0 27 26 0 37 rrcurveto
          0 38 -27 26 -33 0 rrcurveto
          -33 0 -27 -26 0 -38 rrcurveto
          0 -37 27 -26 33 0 rrcurveto
          endchar
        </CharString>
        <CharString name="exclamdown">
          -270 103 -184 rmoveto
          84 0 rlineto
          -2 94 rlineto
          -12 377 rlineto
          -57 0 rlineto
          -11 -377 rlineto
          40 462 rmoveto
          33 0 27 26 0 38 rrcurveto
          0 36 -27 26 -33 0 rrcurveto
          -33 0 -27 -26 0 -36 rrcurveto
          0 -38 27 -26 33 0 rrcurveto
          endchar
        </CharString>
        <CharString name="f">
          -268 96 0 rmoveto
          83 0 rlineto
          0 419 rlineto
          102 0 rlineto
          0 67 rlineto
          -102 0 rlineto
          0 76 rlineto
          0 62 22 33 46 0 rrcurveto
          17 0 18 -4 19 -6 rrcurveto
          18 61 rlineto
          -20 9 -31 7 -30 0 rrcurveto
          -97 0 -45 -63 0 -99 rrcurveto
          0 -76 rlineto
          -66 -5 rlineto
          0 -62 rlineto
          66 0 rlineto
          endchar
        </CharString>
        <CharString name="f.sups">
          -359 64 394 rmoveto
          63 0 rlineto
          0 273 rlineto
          68 0 rlineto
          0 49 rlineto
          -68 0 rlineto
          0 46 rlineto
          0 38 15 23 29 0 rrcurveto
          15 0 12 -3 10 -3 rrcurveto
          13 46 rlineto
          -17 8 -18 3 -22 0 rrcurveto
          -69 0 -31 -50 0 -66 rrcurveto
          0 -42 rlineto
          -45 -2 rlineto
          0 -47 rlineto
          45 0 rlineto
          endchar
        </CharString>
        <CharString name="f_f">
          18 381 0 rmoveto
          83 0 rlineto
          0 419 rlineto
          103 0 rlineto
          0 67 rlineto
          -103 0 rlineto
          0 76 rlineto
          0 63 23 32 45 0 rrcurveto
          18 0 19 -4 18 -9 rrcurveto
          18 64 rlineto
          -22 9 -29 7 -30 0 rrcurveto
          -98 0 -45 -63 0 -99 rrcurveto
          0 -76 rlineto
          -202 0 rlineto
          0 62 rlineto
          0 64 27 35 48 0 rrcurveto
          25 0 19 -4 21 -10 rrcurveto
          18 63 rlineto
          -25 11 -32 7 -33 0 rrcurveto
          -101 0 -50 -63 0 -101 rrcurveto
          0 -64 rlineto
          -66 -5 rlineto
          0 -62 rlineto
          66 0 rlineto
          0 -419 rlineto
          83 0 rlineto
          0 419 rlineto
          202 0 rlineto
          endchar
        </CharString>
        <CharString name="f_f_t">
          321 381 0 rmoveto
          83 0 rlineto
          0 419 rlineto
          174 0 rlineto
          0 -268 rlineto
          0 -97 35 -66 104 0 rrcurveto
          31 0 32 9 28 9 rrcurveto
          -16 63 rlineto
          -16 -7 -22 -6 -18 0 rrcurveto
          -55 0 -20 34 0 59 rrcurveto
          0 270 rlineto
          132 0 rlineto
          0 67 rlineto
          -132 0 rlineto
          0 136 rlineto
          -69 0 rlineto
          -10 -136 rlineto
          -178 0 rlineto
          0 76 rlineto
          0 63 23 32 45 0 rrcurveto
          18 0 19 -4 18 -9 rrcurveto
          18 64 rlineto
          -22 9 -29 7 -30 0 rrcurveto
          -98 0 -45 -63 0 -99 rrcurveto
          0 -76 rlineto
          -202 0 rlineto
          0 62 rlineto
          0 64 27 35 48 0 rrcurveto
          25 0 19 -4 21 -10 rrcurveto
          18 63 rlineto
          -25 11 -32 7 -33 0 rrcurveto
          -101 0 -50 -63 0 -101 rrcurveto
          0 -64 rlineto
          -66 -5 rlineto
          0 -62 rlineto
          66 0 rlineto
          0 -419 rlineto
          83 0 rlineto
          0 419 rlineto
          202 0 rlineto
          endchar
        </CharString>
        <CharString name="f_t">
          35 96 0 rmoveto
          83 0 rlineto
          0 419 rlineto
          174 0 rlineto
          0 -268 rlineto
          0 -97 35 -66 104 0 rrcurveto
          30 0 33 9 27 9 rrcurveto
          -16 63 rlineto
          -16 -7 -22 -6 -17 0 rrcurveto
          -56 0 -19 34 0 59 rrcurveto
          0 270 rlineto
          131 0 rlineto
          0 67 rlineto
          -131 0 rlineto
          0 136 rlineto
          -70 0 rlineto
          -10 -136 rlineto
          -177 0 rlineto
          0 76 rlineto
          0 63 22 32 46 0 rrcurveto
          17 0 19 -4 19 -9 rrcurveto
          17 64 rlineto
          -22 9 -29 7 -30 0 rrcurveto
          -97 0 -45 -63 0 -99 rrcurveto
          0 -76 rlineto
          -66 -5 rlineto
          0 -62 rlineto
          66 0 rlineto
          endchar
        </CharString>
        <CharString name="five">
          -63 234 -12 rmoveto
          111 0 104 78 0 138 rrcurveto
          0 138 -89 62 -108 0 rrcurveto
          -39 0 -29 -10 -30 -16 rrcurveto
          17 188 rlineto
          247 0 rlineto
          0 72 rlineto
          -320 0 rlineto
          -21 -307 rlineto
          44 -28 rlineto
          38 25 27 13 44 0 rrcurveto
          82 0 53 -51 0 -88 rrcurveto
          0 -89 -61 -56 -78 0 rrcurveto
          -75 0 -48 35 -38 38 rrcurveto
          -40 -55 rlineto
          44 -44 63 -43 102 0 rrcurveto
          endchar
        </CharString>
        <CharString name="five.dnom">
          -193 183 -12 rmoveto
          79 0 61 55 0 80 rrcurveto
          0 84 -57 47 -71 0 rrcurveto
          -22 0 -22 -7 -18 -8 rrcurveto
          10 95 rlineto
          160 0 rlineto
          0 56 rlineto
          -213 0 rlineto
          -18 -188 rlineto
          31 -23 rlineto
          21 18 22 14 31 0 rrcurveto
          47 0 34 -33 0 -53 rrcurveto
          0 -49 -33 -37 -46 0 rrcurveto
          -45 0 -31 22 -25 36 rrcurveto
          -43 -33 rlineto
          31 -44 48 -32 69 0 rrcurveto
          endchar
        </CharString>
        <CharString name="five.numr">
          -193 183 254 rmoveto
          79 0 61 55 0 80 rrcurveto
          0 84 -57 47 -71 0 rrcurveto
          -22 0 -22 -7 -18 -8 rrcurveto
          10 95 rlineto
          160 0 rlineto
          0 56 rlineto
          -213 0 rlineto
          -18 -188 rlineto
          31 -23 rlineto
          21 18 22 14 31 0 rrcurveto
          47 0 34 -33 0 -53 rrcurveto
          0 -49 -33 -37 -46 0 rrcurveto
          -45 0 -31 22 -25 36 rrcurveto
          -43 -33 rlineto
          31 -44 48 -32 69 0 rrcurveto
          endchar
        </CharString>
        <CharString name="five.sups">
          -193 183 382 rmoveto
          79 0 61 55 0 80 rrcurveto
          0 84 -57 47 -71 0 rrcurveto
          -22 0 -22 -7 -18 -8 rrcurveto
          10 95 rlineto
          160 0 rlineto
          0 56 rlineto
          -213 0 rlineto
          -18 -188 rlineto
          31 -23 rlineto
          21 18 22 14 31 0 rrcurveto
          47 0 34 -33 0 -53 rrcurveto
          0 -49 -33 -37 -46 0 rrcurveto
          -45 0 -31 22 -25 36 rrcurveto
          -43 -33 rlineto
          31 -44 48 -32 69 0 rrcurveto
          endchar
        </CharString>
        <CharString name="four">
          -63 104 242 rmoveto
          149 217 rlineto
          18 32 18 28 16 30 rrcurveto
          4 0 rlineto
          -2 -34 -3 -55 0 -33 rrcurveto
          0 -185 rlineto
          0 -242 rmoveto
          78 0 rlineto
          0 176 rlineto
          87 0 rlineto
          0 66 rlineto
          -87 0 rlineto
          0 396 rlineto
          -92 0 rlineto
          -273 -407 rlineto
          0 -55 rlineto
          287 0 rlineto
          endchar
        </CharString>
        <CharString name="four.dnom">
          -193 109 150 rmoveto
          61 98 rlineto
          50 81 rlineto
          4 0 rlineto
          -4 -109 rlineto
          0 -70 rlineto
          0 -150 rmoveto
          58 0 rlineto
          0 104 rlineto
          58 0 rlineto
          0 46 rlineto
          -58 0 rlineto
          0 240 rlineto
          -73 0 rlineto
          -163 -253 rlineto
          0 -33 rlineto
          178 0 rlineto
          endchar
        </CharString>
        <CharString name="four.numr">
          -193 109 416 rmoveto
          61 98 rlineto
          50 81 rlineto
          4 0 rlineto
          -4 -109 rlineto
          0 -70 rlineto
          0 -150 rmoveto
          58 0 rlineto
          0 104 rlineto
          58 0 rlineto
          0 46 rlineto
          -58 0 rlineto
          0 240 rlineto
          -73 0 rlineto
          -163 -253 rlineto
          0 -33 rlineto
          178 0 rlineto
          endchar
        </CharString>
        <CharString name="four.sups">
          -193 109 544 rmoveto
          61 98 rlineto
          50 81 rlineto
          4 0 rlineto
          -4 -109 rlineto
          0 -70 rlineto
          0 -150 rmoveto
          58 0 rlineto
          0 104 rlineto
          58 0 rlineto
          0 46 rlineto
          -58 0 rlineto
          0 240 rlineto
          -73 0 rlineto
          -163 -253 rlineto
          0 -33 rlineto
          178 0 rlineto
          endchar
        </CharString>
        <CharString name="g">
          -55 246 -224 rmoveto
          151 0 95 78 0 91 rrcurveto
          0 80 -57 36 -113 0 rrcurveto
          -94 0 rlineto
          -65 0 -20 22 0 30 rrcurveto
          0 27 13 16 18 15 rrcurveto
          22 -11 26 -6 24 0 rrcurveto
          99 0 79 65 0 104 rrcurveto
          0 41 -16 36 -23 22 rrcurveto
          99 0 rlineto
          0 64 rlineto
          -169 0 rlineto
          -18 7 -24 5 -27 0 rrcurveto
          -99 0 -84 -67 0 -106 rrcurveto
          0 -58 31 -47 32 -26 rrcurveto
          0 -4 rlineto
          -25 -17 -28 -32 0 -41 rrcurveto
          0 -38 19 -26 24 -15 rrcurveto
          0 -4 rlineto
          -44 -30 -27 -39 0 -41 rrcurveto
          0 -84 82 -47 119 0 rrcurveto
          0 434 rmoveto
          -56 0 -47 44 0 71 rrcurveto
          0 71 46 42 57 0 rrcurveto
          57 0 46 -43 0 -70 rrcurveto
          0 -71 -47 -44 -56 0 rrcurveto
          12 -376 rmoveto
          -88 0 -53 32 0 52 rrcurveto
          0 28 15 29 35 25 rrcurveto
          21 -6 23 -2 19 0 rrcurveto
          83 0 rlineto
          64 0 34 -15 0 -45 rrcurveto
          0 -50 -61 -48 -92 0 rrcurveto
          endchar
        </CharString>
        <CharString name="g.sups">
          -217 164 248 rmoveto
          104 0 64 52 0 60 rrcurveto
          0 56 -37 23 -78 0 rrcurveto
          -62 0 rlineto
          -41 0 -15 11 0 21 rrcurveto
          0 15 8 10 11 9 rrcurveto
          16 -8 17 -2 15 0 rrcurveto
          67 0 55 42 0 70 rrcurveto
          0 23 -10 24 -13 13 rrcurveto
          62 0 rlineto
          0 48 rlineto
          -110 0 rlineto
          -15 6 -16 3 -20 0 rrcurveto
          -68 0 -58 -43 0 -72 rrcurveto
          0 -38 21 -31 22 -17 rrcurveto
          0 -4 rlineto
          -18 -12 -18 -21 0 -25 rrcurveto
          0 -25 12 -18 17 -10 rrcurveto
          0 -4 rlineto
          -30 -18 -16 -24 0 -28 rrcurveto
          0 -56 54 -30 80 0 rrcurveto
          2 289 rmoveto
          -39 0 -28 28 0 44 rrcurveto
          0 45 28 25 39 0 rrcurveto
          36 0 30 -26 0 -44 rrcurveto
          0 -44 -30 -28 -36 0 rrcurveto
          8 -246 rmoveto
          -57 0 -34 19 0 33 rrcurveto
          0 18 11 16 20 14 rrcurveto
          14 -4 17 0 11 0 rrcurveto
          53 0 rlineto
          40 0 23 -9 0 -27 rrcurveto
          0 -31 -40 -29 -58 0 rrcurveto
          endchar
        </CharString>
        <CharString name="germandbls">
          16 388 -12 rmoveto
          98 0 62 65 0 84 rrcurveto
          0 162 -185 -22 0 97 rrcurveto
          0 69 99 33 0 100 rrcurveto
          0 79 -65 67 -109 0 rrcurveto
          -129 0 -77 -82 0 -125 rrcurveto
          0 -515 rlineto
          82 0 rlineto
          0 499 rlineto
          0 103 49 53 74 0 rrcurveto
          58 0 35 -38 0 -50 rrcurveto
          0 -84 -96 -29 0 -90 rrcurveto
          0 -139 185 23 0 -116 rrcurveto
          0 -42 -29 -37 -55 0 rrcurveto
          -38 0 -33 11 -35 29 rrcurveto
          -33 -56 rlineto
          41 -33 46 -16 55 0 rrcurveto
          endchar
        </CharString>
        <CharString name="grave">
          -18 314 573 rmoveto
          42 42 rlineto
          -170 166 rlineto
          -51 -55 rlineto
          endchar
        </CharString>
        <CharString name="greater">
          -63 34 130 rmoveto
          429 169 rlineto
          0 66 rlineto
          -429 169 rlineto
          0 -73 rlineto
          211 -77 rlineto
          133 -50 rlineto
          0 -4 rlineto
          -133 -50 rlineto
          -211 -77 rlineto
          endchar
        </CharString>
        <CharString name="guillemotleft">
          -130 181 66 rmoveto
          36 28 rlineto
          -118 158 rlineto
          118 156 rlineto
          -36 30 rlineto
          -136 -155 rlineto
          0 -62 rlineto
          295 -155 rmoveto
          36 28 rlineto
          -118 158 rlineto
          118 156 rlineto
          -36 30 rlineto
          -136 -155 rlineto
          0 -62 rlineto
          endchar
        </CharString>
        <CharString name="guillemotright">
          -130 90 66 rmoveto
          136 155 rlineto
          0 62 rlineto
          -136 155 rlineto
          -36 -30 rlineto
          118 -156 rlineto
          -118 -158 rlineto
          195 -28 rmoveto
          136 155 rlineto
          0 62 rlineto
          -136 155 rlineto
          -36 -30 rlineto
          118 -156 rlineto
          -118 -158 rlineto
          endchar
        </CharString>
        <CharString name="h">
          -16 82 0 rmoveto
          83 0 rlineto
          0 352 rlineto
          48 49 35 25 49 0 rrcurveto
          64 0 28 -38 0 -91 rrcurveto
          0 -297 rlineto
          83 0 rlineto
          0 308 rlineto
          0 124 -46 66 -103 0 rrcurveto
          -67 0 -49 -36 -45 -44 rrcurveto
          3 100 rlineto
          0 194 rlineto
          -83 0 rlineto
          endchar
        </CharString>
        <CharString name="h.sups">
          -193 52 394 rmoveto
          62 0 rlineto
          0 230 rlineto
          32 32 26 15 26 0 rrcurveto
          50 0 11 -31 0 -51 rrcurveto
          0 -195 rlineto
          62 0 rlineto
          0 204 rlineto
          0 75 -26 51 -76 0 rrcurveto
          -43 0 -38 -25 -27 -28 rrcurveto
          3 67 rlineto
          0 125 rlineto
          -62 0 rlineto
          endchar
        </CharString>
        <CharString name="hyphen">
          -249 41 219 rmoveto
          230 0 rlineto
          0 64 rlineto
          -230 0 rlineto
          endchar
        </CharString>
        <CharString name="hyphen.sups">
          -324 41 549 rmoveto
          156 0 rlineto
          0 45 rlineto
          -156 0 rlineto
          endchar
        </CharString>
        <CharString name="i">
          -313 82 0 rmoveto
          83 0 rlineto
          0 486 rlineto
          -83 0 rlineto
          42 100 rmoveto
          32 0 23 21 0 33 rrcurveto
          0 32 -23 22 -32 0 rrcurveto
          -32 0 -23 -22 0 -32 rrcurveto
          0 -33 23 -21 32 0 rrcurveto
          endchar
        </CharString>
        <CharString name="i.sups">
          -394 52 394 rmoveto
          62 0 rlineto
          0 322 rlineto
          -62 0 rlineto
          32 62 rmoveto
          24 0 18 17 0 22 rrcurveto
          0 23 -18 17 -24 0 rrcurveto
          -24 0 -18 -17 0 -23 rrcurveto
          0 -22 18 -17 24 0 rrcurveto
          endchar
        </CharString>
        <CharString name="iacute">
          -313 82 0 rmoveto
          83 0 rlineto
          0 486 rlineto
          -83 0 rlineto
          -1 87 rmoveto
          179 153 rlineto
          -51 55 rlineto
          -170 -166 rlineto
          endchar
        </CharString>
        <CharString name="icircumflex">
          -313 82 0 rmoveto
          83 0 rlineto
          0 486 rlineto
          -83 0 rlineto
          -78 82 rmoveto
          118 113 rlineto
          4 0 rlineto
          118 -113 rlineto
          35 32 rlineto
          -113 140 rlineto
          -84 0 rlineto
          -113 -140 rlineto
          endchar
        </CharString>
        <CharString name="idieresis">
          -313 82 0 rmoveto
          83 0 rlineto
          0 486 rlineto
          -83 0 rlineto
          -54 101 rmoveto
          28 0 21 22 0 28 rrcurveto
          0 28 -21 22 -28 0 rrcurveto
          -29 0 -21 -22 0 -28 rrcurveto
          0 -28 21 -22 29 0 rrcurveto
          192 0 rmoveto
          29 0 21 22 0 28 rrcurveto
          0 28 -21 22 -29 0 rrcurveto
          -28 0 -21 -22 0 -28 rrcurveto
          0 -28 21 -22 28 0 rrcurveto
          endchar
        </CharString>
        <CharString name="igrave">
          -313 82 0 rmoveto
          83 0 rlineto
          0 486 rlineto
          -83 0 rlineto
          85 87 rmoveto
          42 42 rlineto
          -170 166 rlineto
          -51 -55 rlineto
          endchar
        </CharString>
        <CharString name="j">
          -313 32 -217 rmoveto
          97 0 37 63 0 100 rrcurveto
          0 540 rlineto
          -83 0 rlineto
          0 -540 rlineto
          0 -59 -12 -36 -48 0 rrcurveto
          -16 0 -18 4 -12 4 rrcurveto
          -17 -62 rlineto
          17 -8 26 -6 29 0 rrcurveto
          91 803 rmoveto
          32 0 23 21 0 33 rrcurveto
          0 32 -23 22 -32 0 rrcurveto
          -32 0 -23 -22 0 -32 rrcurveto
          0 -33 23 -21 32 0 rrcurveto
          endchar
        </CharString>
        <CharString name="j.sups">
          -391 23 250 rmoveto
          67 0 26 43 0 72 rrcurveto
          0 351 rlineto
          -62 0 rlineto
          0 -355 rlineto
          0 -39 -8 -20 -31 0 rrcurveto
          -13 0 -7 2 -8 3 rrcurveto
          -13 -49 rlineto
          15 -5 12 -3 22 0 rrcurveto
          63 528 rmoveto
          24 0 18 17 0 22 rrcurveto
          0 23 -18 17 -24 0 rrcurveto
          -24 0 -18 -17 0 -23 rrcurveto
          0 -22 18 -17 24 0 rrcurveto
          endchar
        </CharString>
        <CharString name="k">
          -65 82 0 rmoveto
          82 0 rlineto
          0 128 rlineto
          90 105 rlineto
          142 -233 rlineto
          90 0 rlineto
          -183 290 rlineto
          162 196 rlineto
          -93 0 rlineto
          -205 -254 rlineto
          -3 0 rlineto
          0 480 rlineto
          -82 0 rlineto
          endchar
        </CharString>
        <CharString name="k.sups">
          -222 52 394 rmoveto
          62 0 rlineto
          0 82 rlineto
          56 66 rlineto
          93 -148 rlineto
          69 0 rlineto
          -125 190 rlineto
          112 132 rlineto
          -70 0 rlineto
          -131 -160 rlineto
          -4 0 rlineto
          0 307 rlineto
          -62 0 rlineto
          endchar
        </CharString>
        <CharString name="l">
          -305 169 -12 rmoveto
          21 0 15 3 12 6 rrcurveto
          -11 62 rlineto
          -8 -2 -4 0 -5 0 rrcurveto
          -13 0 -11 9 0 26 rrcurveto
          0 620 rlineto
          -83 0 rlineto
          0 -614 rlineto
          0 -70 25 -40 62 0 rrcurveto
          endchar
        </CharString>
        <CharString name="l.sups">
          -386 118 386 rmoveto
          16 0 10 3 9 4 rrcurveto
          -9 47 rlineto
          -6 -2 -3 0 -4 0 rrcurveto
          -10 0 -7 6 0 19 rrcurveto
          0 400 rlineto
          -62 0 rlineto
          0 -395 rlineto
          0 -51 17 -31 49 0 rrcurveto
          endchar
        </CharString>
        <CharString name="less">
          -63 463 130 rmoveto
          0 73 rlineto
          -210 77 rlineto
          -134 50 rlineto
          0 4 rlineto
          134 50 rlineto
          210 77 rlineto
          0 73 rlineto
          -429 -169 rlineto
          0 -66 rlineto
          endchar
        </CharString>
        <CharString name="logicalnot">
          -63 397 104 rmoveto
          66 0 rlineto
          0 257 rlineto
          -429 0 rlineto
          0 -62 rlineto
          363 0 rlineto
          endchar
        </CharString>
        <CharString name="m">
          269 82 0 rmoveto
          83 0 rlineto
          0 352 rlineto
          45 50 40 24 36 0 rrcurveto
          62 0 28 -38 0 -91 rrcurveto
          0 -297 rlineto
          83 0 rlineto
          0 352 rlineto
          45 50 39 24 38 0 rrcurveto
          61 0 29 -38 0 -91 rrcurveto
          0 -297 rlineto
          83 0 rlineto
          0 308 rlineto
          0 124 -48 66 -100 0 rrcurveto
          -59 0 -51 -38 -50 -54 rrcurveto
          -20 57 -40 35 -75 0 rrcurveto
          -58 0 -50 -36 -43 -46 rrcurveto
          -3 0 rlineto
          -7 70 rlineto
          -68 0 rlineto
          endchar
        </CharString>
        <CharString name="m.sups">
          -1 52 394 rmoveto
          62 0 rlineto
          0 230 rlineto
          31 32 23 15 23 0 rrcurveto
          46 0 13 -31 0 -51 rrcurveto
          0 -195 rlineto
          63 0 rlineto
          0 230 rlineto
          31 32 22 15 24 0 rrcurveto
          46 0 13 -31 0 -51 rrcurveto
          0 -195 rlineto
          62 0 rlineto
          0 204 rlineto
          0 75 -29 51 -71 0 rrcurveto
          -44 0 -35 -28 -30 -32 rrcurveto
          -15 40 -30 20 -45 0 rrcurveto
          -43 0 -31 -24 -27 -29 rrcurveto
          -3 0 rlineto
          -6 45 rlineto
          -50 0 rlineto
          endchar
        </CharString>
        <CharString name="macron">
          -18 138 601 rmoveto
          266 0 rlineto
          0 57 rlineto
          -266 0 rlineto
          endchar
        </CharString>
        <CharString name="mu">
          2 82 -179 rmoveto
          84 0 rlineto
          -6 77 -1 43 0 96 rrcurveto
          22 -38 32 -9 39 0 rrcurveto
          53 0 47 30 35 62 rrcurveto
          2 0 rlineto
          7 -65 26 -29 55 0 rrcurveto
          27 0 18 5 14 7 rrcurveto
          -11 63 rlineto
          -11 -4 -10 -2 -9 0 rrcurveto
          -21 0 -14 11 0 28 rrcurveto
          0 116 4 143 2 131 rrcurveto
          -84 0 rlineto
          0 -332 rlineto
          -45 -79 -40 -15 -43 0 rrcurveto
          -63 0 -26 44 0 85 rrcurveto
          0 297 rlineto
          -83 0 rlineto
          endchar
        </CharString>
        <CharString name="multiply">
          -63 94 126 rmoveto
          155 159 rlineto
          154 -159 rlineto
          44 46 rlineto
          -154 158 rlineto
          154 158 rlineto
          -44 45 rlineto
          -154 -159 rlineto
          -155 159 rlineto
          -44 -45 rlineto
          154 -158 rlineto
          -154 -158 rlineto
          endchar
        </CharString>
        <CharString name="n">
          -13 82 0 rmoveto
          83 0 rlineto
          0 352 rlineto
          48 49 35 25 49 0 rrcurveto
          64 0 28 -38 0 -91 rrcurveto
          0 -297 rlineto
          83 0 rlineto
          0 308 rlineto
          0 124 -46 66 -103 0 rrcurveto
          -67 0 -50 -36 -46 -46 rrcurveto
          -3 0 rlineto
          -7 70 rlineto
          -68 0 rlineto
          endchar
        </CharString>
        <CharString name="n.sups">
          -191 52 394 rmoveto
          62 0 rlineto
          0 230 rlineto
          32 32 26 15 27 0 rrcurveto
          49 0 11 -31 0 -51 rrcurveto
          0 -195 rlineto
          62 0 rlineto
          0 204 rlineto
          0 75 -26 51 -76 0 rrcurveto
          -43 0 -37 -24 -28 -29 rrcurveto
          -3 0 rlineto
          -7 45 rlineto
          -49 0 rlineto
          endchar
        </CharString>
        <CharString name="nine">
          -63 118 445 rmoveto
          0 84 48 55 62 0 rrcurveto
          81 0 49 -66 10 -124 rrcurveto
          -40 -59 -51 -25 -42 0 rrcurveto
          -78 0 -39 52 0 83 rrcurveto
          87 -457 rmoveto
          128 0 116 99 0 256 rrcurveto
          0 205 -95 102 -126 0 rrcurveto
          -102 0 -86 -83 0 -122 rrcurveto
          0 -131 71 -66 110 0 rrcurveto
          52 0 57 30 40 50 rrcurveto
          -4 -202 -74 -69 -90 0 rrcurveto
          -40 0 -39 20 -26 30 rrcurveto
          -46 -52 rlineto
          35 -38 51 -29 68 0 rrcurveto
          endchar
        </CharString>
        <CharString name="nine.dnom">
          -193 99 271 rmoveto
          0 47 30 33 40 0 rrcurveto
          49 0 35 -39 6 -77 rrcurveto
          -30 -32 -26 -11 -30 0 rrcurveto
          -48 0 -26 33 0 46 rrcurveto
          51 -283 rmoveto
          96 0 74 70 0 147 rrcurveto
          0 123 -59 74 -93 0 rrcurveto
          -73 0 -56 -57 0 -75 rrcurveto
          0 -74 44 -51 78 0 rrcurveto
          37 0 33 14 28 27 rrcurveto
          -6 -100 -47 -47 -58 0 rrcurveto
          -27 0 -21 11 -19 13 rrcurveto
          -27 -44 rlineto
          23 -17 28 -14 45 0 rrcurveto
          endchar
        </CharString>
        <CharString name="nine.numr">
          -193 99 537 rmoveto
          0 47 30 33 40 0 rrcurveto
          49 0 35 -39 6 -77 rrcurveto
          -30 -32 -26 -11 -30 0 rrcurveto
          -48 0 -26 33 0 46 rrcurveto
          51 -283 rmoveto
          96 0 74 70 0 147 rrcurveto
          0 123 -59 74 -93 0 rrcurveto
          -73 0 -56 -57 0 -75 rrcurveto
          0 -74 44 -51 78 0 rrcurveto
          37 0 33 14 28 27 rrcurveto
          -6 -100 -47 -47 -58 0 rrcurveto
          -27 0 -21 11 -19 13 rrcurveto
          -27 -44 rlineto
          23 -17 28 -14 45 0 rrcurveto
          endchar
        </CharString>
        <CharString name="nine.sups">
          -193 99 665 rmoveto
          0 47 30 33 40 0 rrcurveto
          49 0 35 -39 6 -77 rrcurveto
          -30 -32 -26 -11 -30 0 rrcurveto
          -48 0 -26 33 0 46 rrcurveto
          51 -283 rmoveto
          96 0 74 70 0 147 rrcurveto
          0 123 -59 74 -93 0 rrcurveto
          -73 0 -56 -57 0 -75 rrcurveto
          0 -74 44 -51 78 0 rrcurveto
          37 0 33 14 28 27 rrcurveto
          -6 -100 -47 -47 -58 0 rrcurveto
          -27 0 -21 11 -19 13 rrcurveto
          -27 -44 rlineto
          23 -17 28 -14 45 0 rrcurveto
          endchar
        </CharString>
        <CharString name="ntilde">
          -13 82 0 rmoveto
          83 0 rlineto
          0 352 rlineto
          48 49 35 25 49 0 rrcurveto
          64 0 28 -38 0 -91 rrcurveto
          0 -297 rlineto
          83 0 rlineto
          0 308 rlineto
          0 124 -46 66 -103 0 rrcurveto
          -67 0 -50 -36 -46 -46 rrcurveto
          -3 0 rlineto
          -7 70 rlineto
          -68 0 rlineto
          285 91 rmoveto
          69 0 29 58 3 77 rrcurveto
          -55 4 rlineto
          -3 -46 -14 -33 -29 0 rrcurveto
          -47 0 -26 84 -71 0 rrcurveto
          -69 0 -29 -58 -3 -78 rrcurveto
          55 -3 rlineto
          3 47 14 32 30 0 rrcurveto
          46 0 26 -84 71 0 rrcurveto
          endchar
        </CharString>
        <CharString name="numbersign">
          -63 88 0 rmoveto
          59 0 rlineto
          25 201 rlineto
          125 0 rlineto
          -24 -201 rlineto
          60 0 rlineto
          24 201 rlineto
          92 0 rlineto
          0 63 rlineto
          -85 0 rlineto
          18 143 rlineto
          87 0 rlineto
          0 63 rlineto
          -81 0 rlineto
          25 180 rlineto
          -60 0 rlineto
          -24 -180 rlineto
          -125 0 rlineto
          23 180 rlineto
          -59 0 rlineto
          -24 -180 rlineto
          -90 0 rlineto
          0 -63 rlineto
          84 0 rlineto
          -19 -143 rlineto
          -85 0 rlineto
          0 -63 rlineto
          79 0 rlineto
          66 63 rmoveto
          18 143 rlineto
          126 0 rlineto
          -19 -143 rlineto
          endchar
        </CharString>
        <CharString name="o">
          -18 271 -12 rmoveto
          119 0 107 93 0 161 rrcurveto
          0 163 -107 93 -119 0 rrcurveto
          -119 0 -106 -93 0 -163 rrcurveto
          0 -161 106 -93 119 0 rrcurveto
          0 69 rmoveto
          -83 0 -56 74 0 111 rrcurveto
          0 112 56 75 83 0 rrcurveto
          84 0 56 -75 0 -112 rrcurveto
          0 -111 -56 -74 -84 0 rrcurveto
          endchar
        </CharString>
        <CharString name="o.sups">
          -195 182 386 rmoveto
          82 0 70 63 0 106 rrcurveto
          0 107 -70 62 -82 0 rrcurveto
          -83 0 -69 -62 0 -107 rrcurveto
          0 -106 69 -63 83 0 rrcurveto
          0 52 rmoveto
          -55 0 -33 48 0 69 rrcurveto
          0 71 33 47 55 0 rrcurveto
          55 0 33 -47 0 -71 rrcurveto
          0 -69 -33 -48 -55 0 rrcurveto
          endchar
        </CharString>
        <CharString name="oacute">
          -18 271 -12 rmoveto
          119 0 107 93 0 161 rrcurveto
          0 163 -107 93 -119 0 rrcurveto
          -119 0 -106 -93 0 -163 rrcurveto
          0 -161 106 -93 119 0 rrcurveto
          0 69 rmoveto
          -83 0 -56 74 0 111 rrcurveto
          0 112 56 75 83 0 rrcurveto
          84 0 56 -75 0 -112 rrcurveto
          0 -111 -56 -74 -84 0 rrcurveto
          -43 516 rmoveto
          179 153 rlineto
          -51 55 rlineto
          -170 -166 rlineto
          endchar
        </CharString>
        <CharString name="ocircumflex">
          -18 271 -12 rmoveto
          119 0 107 93 0 161 rrcurveto
          0 163 -107 93 -119 0 rrcurveto
          -119 0 -106 -93 0 -163 rrcurveto
          0 -161 106 -93 119 0 rrcurveto
          0 69 rmoveto
          -83 0 -56 74 0 111 rrcurveto
          0 112 56 75 83 0 rrcurveto
          84 0 56 -75 0 -112 rrcurveto
          0 -111 -56 -74 -84 0 rrcurveto
          -120 511 rmoveto
          118 113 rlineto
          4 0 rlineto
          118 -113 rlineto
          35 32 rlineto
          -113 140 rlineto
          -84 0 rlineto
          -113 -140 rlineto
          endchar
        </CharString>
        <CharString name="odieresis">
          -18 271 -12 rmoveto
          119 0 107 93 0 161 rrcurveto
          0 163 -107 93 -119 0 rrcurveto
          -119 0 -106 -93 0 -163 rrcurveto
          0 -161 106 -93 119 0 rrcurveto
          0 69 rmoveto
          -83 0 -56 74 0 111 rrcurveto
          0 112 56 75 83 0 rrcurveto
          84 0 56 -75 0 -112 rrcurveto
          0 -111 -56 -74 -84 0 rrcurveto
          -96 530 rmoveto
          28 0 21 22 0 28 rrcurveto
          0 28 -21 22 -28 0 rrcurveto
          -29 0 -21 -22 0 -28 rrcurveto
          0 -28 21 -22 29 0 rrcurveto
          192 0 rmoveto
          29 0 21 22 0 28 rrcurveto
          0 28 -21 22 -29 0 rrcurveto
          -28 0 -21 -22 0 -28 rrcurveto
          0 -28 21 -22 28 0 rrcurveto
          endchar
        </CharString>
        <CharString name="ograve">
          -18 271 -12 rmoveto
          119 0 107 93 0 161 rrcurveto
          0 163 -107 93 -119 0 rrcurveto
          -119 0 -106 -93 0 -163 rrcurveto
          0 -161 106 -93 119 0 rrcurveto
          0 69 rmoveto
          -83 0 -56 74 0 111 rrcurveto
          0 112 56 75 83 0 rrcurveto
          84 0 56 -75 0 -112 rrcurveto
          0 -111 -56 -74 -84 0 rrcurveto
          43 516 rmoveto
          42 42 rlineto
          -170 166 rlineto
          -51 -55 rlineto
          endchar
        </CharString>
        <CharString name="one">
          -63 79 0 rmoveto
          360 0 rlineto
          0 69 rlineto
          -131 0 rlineto
          0 569 rlineto
          -64 0 rlineto
          -35 -21 -42 -16 -59 -10 rrcurveto
          0 -54 rlineto
          117 0 rlineto
          0 -468 rlineto
          -146 0 rlineto
          endchar
        </CharString>
        <CharString name="one.dnom">
          -193 172 0 rmoveto
          65 0 rlineto
          0 390 rlineto
          -53 0 rlineto
          -27 -20 -26 -12 -44 -8 rrcurveto
          0 -42 rlineto
          85 0 rlineto
          endchar
        </CharString>
        <CharString name="one.numr">
          -193 172 266 rmoveto
          65 0 rlineto
          0 390 rlineto
          -53 0 rlineto
          -27 -20 -26 -12 -44 -8 rrcurveto
          0 -42 rlineto
          85 0 rlineto
          endchar
        </CharString>
        <CharString name="one.sups">
          -193 172 394 rmoveto
          65 0 rlineto
          0 390 rlineto
          -53 0 rlineto
          -27 -20 -26 -12 -44 -8 rrcurveto
          0 -42 rlineto
          85 0 rlineto
          endchar
        </CharString>
        <CharString name="onehalf">
          249 148 266 rmoveto
          65 0 rlineto
          0 390 rlineto
          -53 0 rlineto
          -27 -20 -26 -12 -44 -8 rrcurveto
          0 -42 rlineto
          85 0 rlineto
          12 -586 rmoveto
          56 0 rlineto
          362 680 rlineto
          -56 0 rlineto
          -29 -668 rmoveto
          268 0 rlineto
          0 55 rlineto
          -164 0 rlineto
          83 85 61 61 0 75 rrcurveto
          0 82 -52 44 -78 0 rrcurveto
          -53 0 -47 -31 -30 -45 rrcurveto
          38 -35 rlineto
          22 32 29 25 33 0 rrcurveto
          46 0 29 -32 0 -50 rrcurveto
          0 -59 -64 -61 -121 -109 rrcurveto
          endchar
        </CharString>
        <CharString name="onequarter">
          221 148 266 rmoveto
          65 0 rlineto
          0 390 rlineto
          -53 0 rlineto
          -27 -20 -26 -12 -44 -8 rrcurveto
          0 -42 rlineto
          85 0 rlineto
          32 -586 rmoveto
          56 0 rlineto
          362 680 rlineto
          -56 0 rlineto
          -19 -518 rmoveto
          61 98 rlineto
          50 81 rlineto
          4 0 rlineto
          -4 -109 rlineto
          0 -70 rlineto
          0 -150 rmoveto
          58 0 rlineto
          0 104 rlineto
          58 0 rlineto
          0 46 rlineto
          -58 0 rlineto
          0 240 rlineto
          -73 0 rlineto
          -163 -253 rlineto
          0 -33 rlineto
          178 0 rlineto
          endchar
        </CharString>
        <CharString name="ordfeminine">
          -215 136 387 rmoveto
          41 0 33 21 27 24 rrcurveto
          4 0 rlineto
          7 -37 rlineto
          49 0 rlineto
          0 196 rlineto
          0 85 -34 48 -80 0 rrcurveto
          -52 0 -48 -22 -33 -20 rrcurveto
          23 -42 rlineto
          27 16 39 18 35 0 rrcurveto
          47 0 14 -31 1 -43 rrcurveto
          -139 -12 -60 -36 0 -71 rrcurveto
          0 -57 40 -37 59 0 rrcurveto
          18 49 rmoveto
          -35 0 -21 16 0 34 rrcurveto
          0 36 35 25 103 12 rrcurveto
          0 -83 rlineto
          -29 -27 -26 -13 -27 0 rrcurveto
          endchar
        </CharString>
        <CharString name="ordmasculine">
          -195 182 386 rmoveto
          82 0 70 63 0 106 rrcurveto
          0 107 -70 62 -82 0 rrcurveto
          -83 0 -69 -62 0 -107 rrcurveto
          0 -106 69 -63 83 0 rrcurveto
          0 52 rmoveto
          -55 0 -33 48 0 69 rrcurveto
          0 71 33 47 55 0 rrcurveto
          55 0 33 -47 0 -71 rrcurveto
          0 -69 -33 -48 -55 0 rrcurveto
          endchar
        </CharString>
        <CharString name="oslash">
          -17 126 246 rmoveto
          0 110 61 76 84 0 rrcurveto
          35 0 30 -12 24 -23 rrcurveto
          -213 -259 rlineto
          -14 30 -7 36 0 42 rrcurveto
          -40 -275 rmoveto
          51 62 rlineto
          38 -29 47 -16 49 0 rrcurveto
          119 0 106 93 0 161 rrcurveto
          0 68 -19 56 -30 42 rrcurveto
          56 68 rlineto
          -46 39 rlineto
          -52 -63 rlineto
          -38 30 -47 16 -49 0 rrcurveto
          -119 0 -106 -93 0 -163 rrcurveto
          0 -68 19 -56 31 -42 rrcurveto
          -56 -67 rlineto
          231 44 rmoveto
          -35 0 -30 12 -24 22 rrcurveto
          214 259 rlineto
          13 -29 7 -36 0 -42 rrcurveto
          0 -111 -61 -75 -84 0 rrcurveto
          endchar
        </CharString>
        <CharString name="otilde">
          -18 271 -12 rmoveto
          119 0 107 93 0 161 rrcurveto
          0 163 -107 93 -119 0 rrcurveto
          -119 0 -106 -93 0 -163 rrcurveto
          0 -161 106 -93 119 0 rrcurveto
          0 69 rmoveto
          -83 0 -56 74 0 111 rrcurveto
          0 112 56 75 83 0 rrcurveto
          84 0 56 -75 0 -112 rrcurveto
          0 -111 -56 -74 -84 0 rrcurveto
          72 520 rmoveto
          69 0 29 58 3 77 rrcurveto
          -55 4 rlineto
          -3 -46 -14 -33 -29 0 rrcurveto
          -47 0 -26 84 -71 0 rrcurveto
          -69 0 -29 -58 -3 -78 rrcurveto
          55 -3 rlineto
          3 47 14 32 30 0 rrcurveto
          46 0 26 -84 71 0 rrcurveto
          endchar
        </CharString>
        <CharString name="p">
          -5 82 -205 rmoveto
          83 0 rlineto
          0 164 rlineto
          -2 85 rlineto
          44 -35 46 -21 44 0 rrcurveto
          111 0 100 97 0 165 rrcurveto
          0 151 -68 97 -125 0 rrcurveto
          -56 0 -55 -31 -44 -37 rrcurveto
          -3 0 rlineto
          -7 56 rlineto
          -68 0 rlineto
          201 -428 rmoveto
          -32 0 -42 13 -44 37 rrcurveto
          0 254 rlineto
          47 44 41 22 41 0 rrcurveto
          91 0 37 -71 0 -107 rrcurveto
          0 -120 -59 -72 -80 0 rrcurveto
          endchar
        </CharString>
        <CharString name="p.sups">
          -186 52 257 rmoveto
          62 0 rlineto
          0 104 rlineto
          -3 62 rlineto
          27 -23 34 -14 30 0 rrcurveto
          73 0 66 64 0 111 rrcurveto
          0 99 -46 64 -84 0 rrcurveto
          -38 0 -36 -21 -26 -24 rrcurveto
          -3 0 rlineto
          -7 37 rlineto
          -49 0 rlineto
          140 -278 rmoveto
          -23 0 -28 9 -27 22 rrcurveto
          0 161 rlineto
          28 27 28 15 26 0 rrcurveto
          56 0 25 -42 0 -69 rrcurveto
          0 -79 -37 -44 -48 0 rrcurveto
          endchar
        </CharString>
        <CharString name="paragraph">
          1 380 -80 rmoveto
          85 0 rlineto
          0 736 rlineto
          -85 0 rlineto
          -87 -430 rmoveto
          33 0 rlineto
          0 430 rlineto
          -44 0 rlineto
          -138 0 -103 -56 0 -157 rrcurveto
          0 -151 107 -66 145 0 rrcurveto
          endchar
        </CharString>
        <CharString name="parenleft">
          -256 214 -176 rmoveto
          51 24 rlineto
          -77 127 -37 151 0 152 rrcurveto
          0 152 37 151 77 127 rrcurveto
          -51 24 rlineto
          -83 -134 -49 -144 0 -176 rrcurveto
          0 -176 49 -144 83 -134 rrcurveto
          endchar
        </CharString>
        <CharString name="parenleft.dnom">
          -323 153 -79 rmoveto
          45 22 rlineto
          -50 80 -21 83 0 89 rrcurveto
          0 88 21 84 50 78 rrcurveto
          -45 22 rlineto
          -57 -81 -31 -79 0 -112 rrcurveto
          0 -113 31 -80 57 -81 rrcurveto
          endchar
        </CharString>
        <CharString name="parenleft.numr">
          -323 153 187 rmoveto
          45 22 rlineto
          -50 80 -21 83 0 89 rrcurveto
          0 88 21 84 50 78 rrcurveto
          -45 22 rlineto
          -57 -81 -31 -79 0 -112 rrcurveto
          0 -113 31 -80 57 -81 rrcurveto
          endchar
        </CharString>
        <CharString name="parenleft.sups">
          -323 153 315 rmoveto
          45 22 rlineto
          -50 80 -21 83 0 89 rrcurveto
          0 88 21 84 50 78 rrcurveto
          -45 22 rlineto
          -57 -81 -31 -79 0 -112 rrcurveto
          0 -113 31 -80 57 -81 rrcurveto
          endchar
        </CharString>
        <CharString name="parenright">
          -256 90 -176 rmoveto
          83 134 49 144 0 176 rrcurveto
          0 176 -49 144 -83 134 rrcurveto
          -52 -24 rlineto
          77 -127 38 -151 0 -152 rrcurveto
          0 -152 -38 -151 -77 -127 rrcurveto
          endchar
        </CharString>
        <CharString name="parenright.dnom">
          -323 86 -79 rmoveto
          55 81 32 80 0 113 rrcurveto
          0 112 -32 79 -55 81 rrcurveto
          -47 -22 rlineto
          51 -78 20 -84 0 -88 rrcurveto
          0 -89 -20 -83 -51 -80 rrcurveto
          endchar
        </CharString>
        <CharString name="parenright.numr">
          -323 86 187 rmoveto
          55 81 32 80 0 113 rrcurveto
          0 112 -32 79 -55 81 rrcurveto
          -47 -22 rlineto
          51 -78 20 -84 0 -88 rrcurveto
          0 -89 -20 -83 -51 -80 rrcurveto
          endchar
        </CharString>
        <CharString name="parenright.sups">
          -323 86 315 rmoveto
          55 81 32 80 0 113 rrcurveto
          0 112 -32 79 -55 81 rrcurveto
          -47 -22 rlineto
          51 -78 20 -84 0 -88 rrcurveto
          0 -89 -20 -83 -51 -80 rrcurveto
          endchar
        </CharString>
        <CharString name="percent">
          265 184 254 rmoveto
          89 0 60 75 0 133 rrcurveto
          0 131 -60 75 -89 0 rrcurveto
          -90 0 -59 -75 0 -131 rrcurveto
          0 -133 59 -75 90 0 rrcurveto
          0 51 rmoveto
          -51 0 -36 53 0 104 rrcurveto
          0 104 36 51 51 0 rrcurveto
          51 0 35 -51 0 -104 rrcurveto
          0 -104 -35 -53 -51 0 rrcurveto
          19 -317 rmoveto
          56 0 rlineto
          362 680 rlineto
          -56 0 rlineto
          76 -680 rmoveto
          89 0 60 75 0 133 rrcurveto
          0 131 -60 75 -89 0 rrcurveto
          -90 0 -59 -75 0 -131 rrcurveto
          0 -133 59 -75 90 0 rrcurveto
          0 51 rmoveto
          -51 0 -36 53 0 104 rrcurveto
          0 104 36 51 51 0 rrcurveto
          51 0 35 -51 0 -104 rrcurveto
          0 -104 -35 -53 -51 0 rrcurveto
          endchar
        </CharString>
        <CharString name="period">
          -310 125 -12 rmoveto
          33 0 27 26 0 37 rrcurveto
          0 38 -27 26 -33 0 rrcurveto
          -33 0 -27 -26 0 -38 rrcurveto
          0 -37 27 -26 33 0 rrcurveto
          endchar
        </CharString>
        <CharString name="period.dnom">
          -383 89 -8 rmoveto
          26 0 20 19 0 28 rrcurveto
          0 29 -20 20 -26 0 rrcurveto
          -27 0 -19 -20 0 -29 rrcurveto
          0 -28 19 -19 27 0 rrcurveto
          endchar
        </CharString>
        <CharString name="period.numr">
          -383 89 258 rmoveto
          26 0 20 19 0 28 rrcurveto
          0 29 -20 20 -26 0 rrcurveto
          -27 0 -19 -20 0 -29 rrcurveto
          0 -28 19 -19 27 0 rrcurveto
          endchar
        </CharString>
        <CharString name="period.sups">
          -383 89 386 rmoveto
          26 0 20 19 0 28 rrcurveto
          0 29 -20 20 -26 0 rrcurveto
          -27 0 -19 -20 0 -29 rrcurveto
          0 -28 19 -19 27 0 rrcurveto
          endchar
        </CharString>
        <CharString name="periodcentered">
          -310 125 259 rmoveto
          33 0 27 26 0 37 rrcurveto
          0 38 -27 26 -33 0 rrcurveto
          -33 0 -27 -26 0 -38 rrcurveto
          0 -37 27 -26 33 0 rrcurveto
          endchar
        </CharString>
        <CharString name="plus">
          -63 216 104 rmoveto
          66 0 rlineto
          0 195 rlineto
          181 0 rlineto
          0 62 rlineto
          -181 0 rlineto
          0 195 rlineto
          -66 0 rlineto
          0 -195 rlineto
          -182 0 rlineto
          0 -62 rlineto
          182 0 rlineto
          endchar
        </CharString>
        <CharString name="plus.sups">
          -193 155 430 rmoveto
          56 0 rlineto
          0 137 rlineto
          126 0 rlineto
          0 53 rlineto
          -126 0 rlineto
          0 136 rlineto
          -56 0 rlineto
          0 -136 rlineto
          -125 0 rlineto
          0 -53 rlineto
          125 0 rlineto
          endchar
        </CharString>
        <CharString name="plusminus">
          -63 216 127 rmoveto
          66 0 rlineto
          0 177 rlineto
          181 0 rlineto
          0 62 rlineto
          -181 0 rlineto
          0 190 rlineto
          -66 0 rlineto
          0 -190 rlineto
          -182 0 rlineto
          0 -62 rlineto
          182 0 rlineto
          -182 -304 rmoveto
          429 0 rlineto
          0 62 rlineto
          -429 0 rlineto
          endchar
        </CharString>
        <CharString name="q">
          -5 390 -205 rmoveto
          83 0 rlineto
          0 691 rlineto
          -66 0 rlineto
          -8 -46 rlineto
          -3 0 rlineto
          -43 38 -39 20 -56 0 rrcurveto
          -111 0 -100 -98 0 -158 rrcurveto
          0 -162 79 -92 122 0 rrcurveto
          56 0 51 30 39 38 rrcurveto
          -4 -88 rlineto
          -124 90 rmoveto
          -85 0 -48 69 0 116 rrcurveto
          0 111 62 74 77 0 rrcurveto
          40 0 37 -13 41 -37 rrcurveto
          0 -254 rlineto
          -40 -44 -39 -22 -45 0 rrcurveto
          endchar
        </CharString>
        <CharString name="q.sups">
          -186 260 257 rmoveto
          62 0 rlineto
          0 459 rlineto
          -48 0 rlineto
          -6 -32 rlineto
          -4 0 rlineto
          -25 26 -30 14 -35 0 rrcurveto
          -73 0 -68 -63 0 -106 rrcurveto
          0 -105 53 -64 85 0 rrcurveto
          35 0 33 17 24 24 rrcurveto
          -3 -59 rlineto
          -76 70 rmoveto
          -59 0 -28 45 0 73 rrcurveto
          0 72 40 44 46 0 rrcurveto
          24 0 27 -10 26 -22 rrcurveto
          0 -165 rlineto
          -26 -25 -24 -12 -26 0 rrcurveto
          endchar
        </CharString>
        <CharString name="question">
          -135 160 199 rmoveto
          73 0 rlineto
          -16 139 161 53 0 131 rrcurveto
          0 99 -67 61 -101 0 rrcurveto
          -73 0 -57 -35 -42 -48 rrcurveto
          48 -43 rlineto
          31 35 39 22 44 0 rrcurveto
          64 0 33 -43 0 -53 rrcurveto
          0 -106 -159 -57 22 -155 rrcurveto
          38 -211 rmoveto
          33 0 27 26 0 37 rrcurveto
          0 38 -27 26 -33 0 rrcurveto
          -33 0 -26 -26 0 -38 rrcurveto
          0 -37 26 -26 33 0 rrcurveto
          endchar
        </CharString>
        <CharString name="questiondown">
          -135 215 -196 rmoveto
          73 0 57 36 42 47 rrcurveto
          -48 43 rlineto
          -31 -35 -39 -22 -44 0 rrcurveto
          -64 0 -32 43 0 54 rrcurveto
          0 105 158 57 -21 155 rrcurveto
          -74 0 rlineto
          17 -139 -161 -53 0 -131 rrcurveto
          0 -99 66 -61 101 0 rrcurveto
          12 568 rmoveto
          33 0 27 26 0 38 rrcurveto
          0 36 -27 26 -33 0 rrcurveto
          -33 0 -27 -26 0 -36 rrcurveto
          0 -38 27 -26 33 0 rrcurveto
          endchar
        </CharString>
        <CharString name="quotedbl">
          -133 99 430 rmoveto
          51 0 rlineto
          16 167 rlineto
          2 93 rlineto
          -88 0 rlineto
          3 -93 rlineto
          193 -167 rmoveto
          51 0 rlineto
          16 167 rlineto
          2 93 rlineto
          -88 0 rlineto
          3 -93 rlineto
          endchar
        </CharString>
        <CharString name="quotesingle">
          -310 99 430 rmoveto
          51 0 rlineto
          16 167 rlineto
          2 93 rlineto
          -88 0 rlineto
          3 -93 rlineto
          endchar
        </CharString>
        <CharString name="r">
          -212 82 0 rmoveto
          83 0 rlineto
          0 312 rlineto
          33 82 49 29 41 0 rrcurveto
          19 0 11 -2 14 -4 rrcurveto
          18 71 rlineto
          -15 7 -15 3 -22 0 rrcurveto
          -54 0 -50 -39 -34 -61 rrcurveto
          -3 0 rlineto
          -7 88 rlineto
          -68 0 rlineto
          endchar
        </CharString>
        <CharString name="r.sups">
          -320 52 394 rmoveto
          63 0 rlineto
          0 204 rlineto
          23 51 31 18 28 0 rrcurveto
          12 0 12 -3 8 -2 rrcurveto
          12 56 rlineto
          -8 4 -14 2 -15 0 rrcurveto
          -36 0 -31 -22 -25 -42 rrcurveto
          -3 0 rlineto
          -7 56 rlineto
          -50 0 rlineto
          endchar
        </CharString>
        <CharString name="registered">
          -136 212 319 rmoveto
          103 0 85 80 0 117 rrcurveto
          0 117 -85 80 -103 0 rrcurveto
          -104 0 -85 -80 0 -117 rrcurveto
          0 -117 85 -80 104 0 rrcurveto
          0 37 rmoveto
          -84 0 -65 65 0 95 rrcurveto
          0 94 65 67 84 0 rrcurveto
          84 0 64 -67 0 -94 rrcurveto
          0 -95 -64 -65 -84 0 rrcurveto
          -73 61 rmoveto
          41 0 rlineto
          0 70 rlineto
          41 0 rlineto
          35 -70 rlineto
          46 0 rlineto
          -46 83 rlineto
          23 8 15 23 0 24 rrcurveto
          0 48 -37 17 -42 0 rrcurveto
          -76 0 rlineto
          41 -101 rmoveto
          0 67 rlineto
          28 0 rlineto
          30 0 11 -14 0 -19 rrcurveto
          0 -22 -16 -12 -27 0 rrcurveto
          endchar
        </CharString>
        <CharString name="s">
          -141 209 -12 rmoveto
          115 0 63 66 0 79 rrcurveto
          0 88 -73 33 -76 27 rrcurveto
          -61 21 -42 18 0 44 rrcurveto
          0 36 27 34 62 0 rrcurveto
          43 0 35 -14 34 -25 rrcurveto
          38 48 rlineto
          -38 32 -52 23 -61 0 rrcurveto
          -106 0 -62 -60 0 -78 rrcurveto
          0 -80 70 -35 73 -26 rrcurveto
          55 -20 54 -21 0 -50 rrcurveto
          0 -42 -31 -33 -64 0 rrcurveto
          -60 0 -44 18 -42 35 rrcurveto
          -38 -48 rlineto
          45 -44 65 -26 71 0 rrcurveto
          endchar
        </CharString>
        <CharString name="s.sups">
          -277 144 386 rmoveto
          73 0 46 42 0 57 rrcurveto
          0 60 -51 19 -46 17 rrcurveto
          -37 15 -34 10 0 29 rrcurveto
          0 21 17 20 36 0 rrcurveto
          30 0 20 -11 24 -17 rrcurveto
          31 40 rlineto
          -26 19 -35 17 -46 0 rrcurveto
          -70 0 -41 -42 0 -50 rrcurveto
          0 -55 50 -23 45 -18 rrcurveto
          37 -14 36 -12 0 -30 rrcurveto
          0 -25 -21 -20 -37 0 rrcurveto
          -36 0 -31 15 -29 22 rrcurveto
          -30 -42 rlineto
          32 -24 45 -20 48 0 rrcurveto
          endchar
        </CharString>
        <CharString name="section">
          -63 236 -64 rmoveto
          95 0 66 58 0 79 rrcurveto
          0 34 -11 27 -18 21 rrcurveto
          50 29 34 37 0 63 rrcurveto
          0 184 -277 -19 0 108 rrcurveto
          0 34 24 29 55 0 rrcurveto
          45 0 35 -21 31 -26 rrcurveto
          41 54 rlineto
          -39 31 -53 26 -63 0 rrcurveto
          -100 0 -52 -61 0 -69 rrcurveto
          0 -35 12 -26 20 -21 rrcurveto
          -50 -28 -36 -44 0 -57 rrcurveto
          0 -185 276 25 0 -114 rrcurveto
          0 -38 -32 -31 -53 0 rrcurveto
          -53 0 -37 20 -33 33 rrcurveto
          -50 -46 rlineto
          41 -45 61 -26 71 0 rrcurveto
          -118 412 rmoveto
          0 41 24 25 37 20 rrcurveto
          83 -47 118 -20 0 -89 rrcurveto
          0 -44 -21 -22 -39 -19 rrcurveto
          -83 49 -119 18 0 88 rrcurveto
          endchar
        </CharString>
        <CharString name="semicolon">
          -310 125 348 rmoveto
          33 0 27 26 0 37 rrcurveto
          0 38 -27 26 -33 0 rrcurveto
          -33 0 -27 -26 0 -38 rrcurveto
          0 -37 27 -26 33 0 rrcurveto
          -58 -518 rmoveto
          82 33 50 68 0 86 rrcurveto
          0 61 -26 37 -44 0 rrcurveto
          -33 0 -28 -22 0 -36 rrcurveto
          0 -38 27 -20 32 0 rrcurveto
          4 0 3 0 4 1 rrcurveto
          0 -53 -34 -44 -57 -25 rrcurveto
          endchar
        </CharString>
        <CharString name="seven">
          -63 171 0 rmoveto
          85 0 rlineto
          11 249 35 144 153 194 rrcurveto
          0 51 rlineto
          -411 0 rlineto
          0 -72 rlineto
          318 0 rlineto
          -129 -176 -51 -150 -11 -240 rrcurveto
          endchar
        </CharString>
        <CharString name="seven.dnom">
          -193 131 0 rmoveto
          68 0 rlineto
          7 136 22 97 95 121 rrcurveto
          0 36 rlineto
          -273 0 rlineto
          0 -55 rlineto
          200 0 rlineto
          -79 -109 -32 -91 -8 -135 rrcurveto
          endchar
        </CharString>
        <CharString name="seven.numr">
          -193 131 266 rmoveto
          68 0 rlineto
          7 136 22 97 95 121 rrcurveto
          0 36 rlineto
          -273 0 rlineto
          0 -55 rlineto
          200 0 rlineto
          -79 -109 -32 -91 -8 -135 rrcurveto
          endchar
        </CharString>
        <CharString name="seven.sups">
          -193 131 394 rmoveto
          68 0 rlineto
          7 136 22 97 95 121 rrcurveto
          0 36 rlineto
          -273 0 rlineto
          0 -55 rlineto
          200 0 rlineto
          -79 -109 -32 -91 -8 -135 rrcurveto
          endchar
        </CharString>
        <CharString name="six">
          -63 261 328 rmoveto
          79 0 39 -52 0 -83 rrcurveto
          0 -84 -48 -56 -63 0 rrcurveto
          -80 0 -49 66 -11 124 rrcurveto
          40 60 52 25 41 0 rrcurveto
          7 -340 rmoveto
          103 0 86 83 0 122 rrcurveto
          0 131 -71 66 -111 0 rrcurveto
          -52 0 -57 -32 -40 -50 rrcurveto
          3 203 76 70 89 0 rrcurveto
          40 0 40 -20 25 -31 rrcurveto
          46 52 rlineto
          -35 39 -50 29 -69 0 rrcurveto
          -127 0 -116 -99 0 -256 rrcurveto
          0 -205 95 -102 125 0 rrcurveto
          endchar
        </CharString>
        <CharString name="six.dnom">
          -193 191 198 rmoveto
          49 0 26 -33 0 -46 rrcurveto
          0 -47 -30 -33 -41 0 rrcurveto
          -48 0 -35 39 -6 77 rrcurveto
          30 32 26 11 29 0 rrcurveto
          5 -210 rmoveto
          74 0 56 57 0 75 rrcurveto
          0 74 -44 51 -78 0 rrcurveto
          -37 0 -33 -14 -28 -27 rrcurveto
          6 100 47 47 58 0 rrcurveto
          27 0 21 -11 19 -13 rrcurveto
          27 44 rlineto
          -23 17 -28 14 -45 0 rrcurveto
          -96 0 -74 -70 0 -147 rrcurveto
          0 -123 59 -74 92 0 rrcurveto
          endchar
        </CharString>
        <CharString name="six.numr">
          -193 191 464 rmoveto
          49 0 26 -33 0 -46 rrcurveto
          0 -47 -30 -33 -41 0 rrcurveto
          -48 0 -35 39 -6 77 rrcurveto
          30 32 26 11 29 0 rrcurveto
          5 -210 rmoveto
          74 0 56 57 0 75 rrcurveto
          0 74 -44 51 -78 0 rrcurveto
          -37 0 -33 -14 -28 -27 rrcurveto
          6 100 47 47 58 0 rrcurveto
          27 0 21 -11 19 -13 rrcurveto
          27 44 rlineto
          -23 17 -28 14 -45 0 rrcurveto
          -96 0 -74 -70 0 -147 rrcurveto
          0 -123 59 -74 92 0 rrcurveto
          endchar
        </CharString>
        <CharString name="six.sups">
          -193 191 592 rmoveto
          49 0 26 -33 0 -46 rrcurveto
          0 -47 -30 -33 -41 0 rrcurveto
          -48 0 -35 39 -6 77 rrcurveto
          30 32 26 11 29 0 rrcurveto
          5 -210 rmoveto
          74 0 56 57 0 75 rrcurveto
          0 74 -44 51 -78 0 rrcurveto
          -37 0 -33 -14 -28 -27 rrcurveto
          6 100 47 47 58 0 rrcurveto
          27 0 21 -11 19 -13 rrcurveto
          27 44 rlineto
          -23 17 -28 14 -45 0 rrcurveto
          -96 0 -74 -70 0 -147 rrcurveto
          0 -123 59 -74 92 0 rrcurveto
          endchar
        </CharString>
        <CharString name="slash">
          -210 10 -160 rmoveto
          60 0 rlineto
          266 870 rlineto
          -60 0 rlineto
          endchar
        </CharString>
        <CharString name="slash.frac">
          -474 -167 -12 rmoveto
          56 0 rlineto
          362 680 rlineto
          -56 0 rlineto
          endchar
        </CharString>
        <CharString name="space">
          -360 endchar
        </CharString>
        <CharString name="space.frac">
          -426 endchar
        </CharString>
        <CharString name="sterling">
          -63 54 0 rmoveto
          400 0 rlineto
          0 71 rlineto
          -281 0 rlineto
          0 4 rlineto
          40 42 21 43 0 69 rrcurveto
          0 20 -2 18 -3 18 rrcurveto
          146 0 rlineto
          0 56 rlineto
          -159 0 rlineto
          -11 41 -12 39 0 42 rrcurveto
          0 68 39 50 72 0 rrcurveto
          46 0 31 -18 26 -33 rrcurveto
          46 42 rlineto
          -33 46 -50 32 -73 0 rrcurveto
          -111 0 -75 -71 0 -113 rrcurveto
          0 -42 14 -41 13 -42 rrcurveto
          -18 0 rlineto
          -67 -3 rlineto
          0 -53 rlineto
          100 0 rlineto
          4 -18 3 -18 0 -19 rrcurveto
          0 -75 -38 -68 -68 -36 rrcurveto
          endchar
        </CharString>
        <CharString name="t">
          -221 235 -12 rmoveto
          33 0 33 9 26 12 rrcurveto
          -17 59 rlineto
          -20 -9 -18 -3 -18 0 rrcurveto
          -55 0 -20 34 0 59 rrcurveto
          0 270 rlineto
          132 0 rlineto
          0 67 rlineto
          -132 0 rlineto
          0 156 rlineto
          -69 0 rlineto
          -10 -156 rlineto
          -76 -5 rlineto
          0 -62 rlineto
          72 0 rlineto
          0 -268 rlineto
          0 -97 35 -66 104 0 rrcurveto
          endchar
        </CharString>
        <CharString name="t.sups">
          -328 160 386 rmoveto
          23 0 24 6 18 6 rrcurveto
          -13 47 rlineto
          -12 -6 -12 -2 -12 0 rrcurveto
          -34 0 -16 22 0 40 rrcurveto
          0 167 rlineto
          88 0 rlineto
          0 50 rlineto
          -88 0 rlineto
          0 97 rlineto
          -52 0 rlineto
          -8 -97 rlineto
          -50 -2 rlineto
          0 -48 rlineto
          48 0 rlineto
          0 -167 rlineto
          0 -67 25 -46 71 0 rrcurveto
          endchar
        </CharString>
        <CharString name="thorn">
          -5 82 -205 rmoveto
          83 0 rlineto
          0 164 rlineto
          -2 83 rlineto
          44 -34 43 -20 47 0 rrcurveto
          111 0 100 97 0 165 rrcurveto
          0 151 -69 97 -128 0 rrcurveto
          -53 0 -52 -28 -43 -35 rrcurveto
          2 84 rlineto
          0 193 rlineto
          -83 0 rlineto
          201 -654 rmoveto
          -32 0 -42 13 -44 37 rrcurveto
          0 254 rlineto
          47 44 41 22 41 0 rrcurveto
          91 0 37 -71 0 -107 rrcurveto
          0 -120 -59 -72 -80 0 rrcurveto
          endchar
        </CharString>
        <CharString name="three">
          -63 236 -12 rmoveto
          117 0 94 69 0 113 rrcurveto
          0 88 -61 56 -77 18 rrcurveto
          0 4 rlineto
          69 26 46 49 0 77 rrcurveto
          0 103 -80 59 -111 0 rrcurveto
          -75 0 -59 -34 -49 -46 rrcurveto
          44 -52 rlineto
          38 37 45 27 53 0 rrcurveto
          68 0 42 -39 0 -61 rrcurveto
          0 -67 -46 -52 -135 0 rrcurveto
          0 -63 rlineto
          152 0 52 -51 0 -76 rrcurveto
          0 -71 -55 -45 -77 0 rrcurveto
          -75 0 -50 35 -38 40 rrcurveto
          -42 -54 rlineto
          43 -47 65 -43 102 0 rrcurveto
          endchar
        </CharString>
        <CharString name="three.dnom">
          -193 180 -12 rmoveto
          76 0 63 45 0 72 rrcurveto
          0 52 -39 33 -45 11 rrcurveto
          41 19 28 31 0 46 rrcurveto
          0 66 -58 39 -67 0 rrcurveto
          -54 0 -40 -25 -34 -39 rrcurveto
          39 -35 rlineto
          22 28 28 20 29 0 rrcurveto
          43 0 27 -25 0 -37 rrcurveto
          0 -40 -39 -30 -66 0 rrcurveto
          0 -41 rlineto
          76 0 45 -24 0 -45 rrcurveto
          0 -44 -36 -26 -42 0 rrcurveto
          -41 0 -34 22 -24 36 rrcurveto
          -43 -33 rlineto
          30 -44 52 -32 63 0 rrcurveto
          endchar
        </CharString>
        <CharString name="three.numr">
          -193 180 254 rmoveto
          76 0 63 45 0 72 rrcurveto
          0 52 -39 33 -45 11 rrcurveto
          41 19 28 31 0 46 rrcurveto
          0 66 -58 39 -67 0 rrcurveto
          -54 0 -40 -25 -34 -39 rrcurveto
          39 -35 rlineto
          22 28 28 20 29 0 rrcurveto
          43 0 27 -25 0 -37 rrcurveto
          0 -40 -39 -30 -66 0 rrcurveto
          0 -41 rlineto
          76 0 45 -24 0 -45 rrcurveto
          0 -44 -36 -26 -42 0 rrcurveto
          -41 0 -34 22 -24 36 rrcurveto
          -43 -33 rlineto
          30 -44 52 -32 63 0 rrcurveto
          endchar
        </CharString>
        <CharString name="three.sups">
          -193 180 382 rmoveto
          76 0 63 45 0 72 rrcurveto
          0 52 -39 33 -45 11 rrcurveto
          41 19 28 31 0 46 rrcurveto
          0 66 -58 39 -67 0 rrcurveto
          -54 0 -40 -25 -34 -39 rrcurveto
          39 -35 rlineto
          22 28 28 20 29 0 rrcurveto
          43 0 27 -25 0 -37 rrcurveto
          0 -40 -39 -30 -66 0 rrcurveto
          0 -41 rlineto
          76 0 45 -24 0 -45 rrcurveto
          0 -44 -36 -26 -42 0 rrcurveto
          -41 0 -34 22 -24 36 rrcurveto
          -43 -33 rlineto
          30 -44 52 -32 63 0 rrcurveto
          endchar
        </CharString>
        <CharString name="threequarters">
          236 179 254 rmoveto
          76 0 63 45 0 72 rrcurveto
          0 52 -39 33 -45 11 rrcurveto
          41 19 28 31 0 46 rrcurveto
          0 66 -58 39 -67 0 rrcurveto
          -54 0 -40 -25 -34 -39 rrcurveto
          39 -35 rlineto
          22 28 28 20 29 0 rrcurveto
          43 0 27 -25 0 -37 rrcurveto
          0 -40 -39 -30 -66 0 rrcurveto
          0 -41 rlineto
          76 0 45 -24 0 -45 rrcurveto
          0 -44 -36 -26 -42 0 rrcurveto
          -41 0 -34 22 -24 36 rrcurveto
          -43 -33 rlineto
          30 -44 52 -32 63 0 rrcurveto
          39 -266 rmoveto
          56 0 rlineto
          362 680 rlineto
          -56 0 rlineto
          -43 -518 rmoveto
          61 98 rlineto
          50 81 rlineto
          4 0 rlineto
          -4 -109 rlineto
          0 -70 rlineto
          0 -150 rmoveto
          58 0 rlineto
          0 104 rlineto
          58 0 rlineto
          0 46 rlineto
          -58 0 rlineto
          0 240 rlineto
          -73 0 rlineto
          -163 -253 rlineto
          0 -33 rlineto
          178 0 rlineto
          endchar
        </CharString>
        <CharString name="two">
          -63 40 0 rmoveto
          412 0 rlineto
          0 71 rlineto
          -191 0 rlineto
          -33 0 -39 -2 -35 -3 rrcurveto
          155 158 112 115 0 124 rrcurveto
          0 112 -74 75 -118 0 rrcurveto
          -82 0 -57 -39 -53 -60 rrcurveto
          47 -45 rlineto
          36 42 46 34 53 0 rrcurveto
          81 0 40 -51 0 -73 rrcurveto
          0 -103 -110 -118 -190 -186 rrcurveto
          endchar
        </CharString>
        <CharString name="two.dnom">
          -193 52 0 rmoveto
          268 0 rlineto
          0 55 rlineto
          -164 0 rlineto
          83 85 61 61 0 75 rrcurveto
          0 82 -52 44 -78 0 rrcurveto
          -53 0 -47 -31 -30 -45 rrcurveto
          38 -35 rlineto
          22 32 29 25 33 0 rrcurveto
          46 0 29 -32 0 -50 rrcurveto
          0 -59 -64 -61 -121 -109 rrcurveto
          endchar
        </CharString>
        <CharString name="two.numr">
          -193 52 266 rmoveto
          268 0 rlineto
          0 55 rlineto
          -164 0 rlineto
          83 85 61 61 0 75 rrcurveto
          0 82 -52 44 -78 0 rrcurveto
          -53 0 -47 -31 -30 -45 rrcurveto
          38 -35 rlineto
          22 32 29 25 33 0 rrcurveto
          46 0 29 -32 0 -50 rrcurveto
          0 -59 -64 -61 -121 -109 rrcurveto
          endchar
        </CharString>
        <CharString name="two.sups">
          -193 52 394 rmoveto
          268 0 rlineto
          0 55 rlineto
          -164 0 rlineto
          83 85 61 61 0 75 rrcurveto
          0 82 -52 44 -78 0 rrcurveto
          -53 0 -47 -31 -30 -45 rrcurveto
          38 -35 rlineto
          22 32 29 25 33 0 rrcurveto
          46 0 29 -32 0 -50 rrcurveto
          0 -59 -64 -61 -121 -109 rrcurveto
          endchar
        </CharString>
        <CharString name="u">
          -16 224 -12 rmoveto
          67 0 48 35 45 53 rrcurveto
          3 0 rlineto
          7 -76 rlineto
          68 0 rlineto
          0 486 rlineto
          -83 0 rlineto
          0 -344 rlineto
          -45 -57 -35 -25 -49 0 rrcurveto
          -64 0 -28 39 0 90 rrcurveto
          0 297 rlineto
          -83 0 rlineto
          0 -308 rlineto
          0 -124 46 -66 103 0 rrcurveto
          endchar
        </CharString>
        <CharString name="u.sups">
          -190 153 386 rmoveto
          43 0 37 25 27 28 rrcurveto
          3 0 rlineto
          7 -45 rlineto
          49 0 rlineto
          0 322 rlineto
          -62 0 rlineto
          0 -229 rlineto
          -31 -33 -27 -14 -26 0 rrcurveto
          -50 0 -10 30 0 51 rrcurveto
          0 195 rlineto
          -63 0 rlineto
          0 -204 rlineto
          0 -75 28 -51 75 0 rrcurveto
          endchar
        </CharString>
        <CharString name="uacute">
          -16 224 -12 rmoveto
          67 0 48 35 45 53 rrcurveto
          3 0 rlineto
          7 -76 rlineto
          68 0 rlineto
          0 486 rlineto
          -83 0 rlineto
          0 -344 rlineto
          -45 -57 -35 -25 -49 0 rrcurveto
          -64 0 -28 39 0 90 rrcurveto
          0 297 rlineto
          -83 0 rlineto
          0 -308 rlineto
          0 -124 46 -66 103 0 rrcurveto
          4 585 rmoveto
          179 153 rlineto
          -51 55 rlineto
          -170 -166 rlineto
          endchar
        </CharString>
        <CharString name="ucircumflex">
          -16 224 -12 rmoveto
          67 0 48 35 45 53 rrcurveto
          3 0 rlineto
          7 -76 rlineto
          68 0 rlineto
          0 486 rlineto
          -83 0 rlineto
          0 -344 rlineto
          -45 -57 -35 -25 -49 0 rrcurveto
          -64 0 -28 39 0 90 rrcurveto
          0 297 rlineto
          -83 0 rlineto
          0 -308 rlineto
          0 -124 46 -66 103 0 rrcurveto
          -73 580 rmoveto
          118 113 rlineto
          4 0 rlineto
          118 -113 rlineto
          35 32 rlineto
          -113 140 rlineto
          -84 0 rlineto
          -113 -140 rlineto
          endchar
        </CharString>
        <CharString name="udieresis">
          -16 224 -12 rmoveto
          67 0 48 35 45 53 rrcurveto
          3 0 rlineto
          7 -76 rlineto
          68 0 rlineto
          0 486 rlineto
          -83 0 rlineto
          0 -344 rlineto
          -45 -57 -35 -25 -49 0 rrcurveto
          -64 0 -28 39 0 90 rrcurveto
          0 297 rlineto
          -83 0 rlineto
          0 -308 rlineto
          0 -124 46 -66 103 0 rrcurveto
          -49 599 rmoveto
          28 0 21 22 0 28 rrcurveto
          0 28 -21 22 -28 0 rrcurveto
          -29 0 -21 -22 0 -28 rrcurveto
          0 -28 21 -22 29 0 rrcurveto
          192 0 rmoveto
          29 0 21 22 0 28 rrcurveto
          0 28 -21 22 -29 0 rrcurveto
          -28 0 -21 -22 0 -28 rrcurveto
          0 -28 21 -22 28 0 rrcurveto
          endchar
        </CharString>
        <CharString name="ugrave">
          -16 224 -12 rmoveto
          67 0 48 35 45 53 rrcurveto
          3 0 rlineto
          7 -76 rlineto
          68 0 rlineto
          0 486 rlineto
          -83 0 rlineto
          0 -344 rlineto
          -45 -57 -35 -25 -49 0 rrcurveto
          -64 0 -28 39 0 90 rrcurveto
          0 297 rlineto
          -83 0 rlineto
          0 -308 rlineto
          0 -124 46 -66 103 0 rrcurveto
          90 585 rmoveto
          42 42 rlineto
          -170 166 rlineto
          -51 -55 rlineto
          endchar
        </CharString>
        <CharString name="underscore">
          -60 12 -126 rmoveto
          476 0 rlineto
          0 55 rlineto
          -476 0 rlineto
          endchar
        </CharString>
        <CharString name="uni004C00B7004C">
          412 90 0 rmoveto
          370 0 rlineto
          0 71 rlineto
          -286 0 rlineto
          0 585 rlineto
          -84 0 rlineto
          287 -394 rmoveto
          33 0 27 26 0 37 rrcurveto
          0 38 -27 26 -33 0 rrcurveto
          -33 0 -27 -26 0 -38 rrcurveto
          0 -37 27 -26 33 0 rrcurveto
          199 -262 rmoveto
          370 0 rlineto
          0 71 rlineto
          -286 0 rlineto
          0 585 rlineto
          -84 0 rlineto
          endchar
        </CharString>
        <CharString name="uni006C00B7006C">
          58 169 -12 rmoveto
          21 0 15 3 12 6 rrcurveto
          -11 62 rlineto
          -8 -2 -4 0 -5 0 rrcurveto
          -13 0 -11 9 0 26 rrcurveto
          0 620 rlineto
          -83 0 rlineto
          0 -614 rlineto
          0 -70 25 -40 62 0 rrcurveto
          135 274 rmoveto
          33 0 27 26 0 37 rrcurveto
          0 38 -27 26 -33 0 rrcurveto
          -33 0 -27 -26 0 -38 rrcurveto
          0 -37 27 -26 33 0 rrcurveto
          228 -274 rmoveto
          21 0 15 3 12 6 rrcurveto
          -11 62 rlineto
          -8 -2 -4 0 -5 0 rrcurveto
          -13 0 -11 9 0 26 rrcurveto
          0 620 rlineto
          -83 0 rlineto
          0 -614 rlineto
          0 -70 25 -40 62 0 rrcurveto
          endchar
        </CharString>
        <CharString name="v">
          -92 187 0 rmoveto
          97 0 rlineto
          172 486 rlineto
          -82 0 rlineto
          -91 -275 rlineto
          -15 -48 -16 -49 -14 -47 rrcurveto
          -4 0 rlineto
          -15 47 -15 49 -15 48 rrcurveto
          -91 275 rlineto
          -86 0 rlineto
          endchar
        </CharString>
        <CharString name="v.sups">
          -238 124 394 rmoveto
          74 0 rlineto
          116 322 rlineto
          -62 0 rlineto
          -58 -176 rlineto
          -31 -96 rlineto
          -3 0 rlineto
          -31 96 rlineto
          -58 176 rlineto
          -63 0 rlineto
          endchar
        </CharString>
        <CharString name="w">
          158 160 0 rmoveto
          100 0 rlineto
          65 261 rlineto
          13 44 9 43 9 57 rrcurveto
          4 0 rlineto
          11 -57 9 -42 12 -45 rrcurveto
          66 -261 rlineto
          105 0 rlineto
          131 486 rlineto
          -79 0 rlineto
          -71 -282 rlineto
          -11 -44 -8 -42 -10 -52 rrcurveto
          -4 0 rlineto
          -10 52 -11 42 -11 44 rrcurveto
          -74 282 rlineto
          -89 0 rlineto
          -73 -282 rlineto
          -11 -44 -9 -42 -10 -52 rrcurveto
          -4 0 rlineto
          -8 52 -10 42 -11 44 rrcurveto
          -71 282 rlineto
          -85 0 rlineto
          endchar
        </CharString>
        <CharString name="w.sups">
          -72 105 394 rmoveto
          74 0 rlineto
          44 164 rlineto
          20 91 rlineto
          2 0 rlineto
          21 -91 rlineto
          43 -164 rlineto
          76 0 rlineto
          87 322 rlineto
          -60 0 rlineto
          -43 -178 rlineto
          -21 -92 rlineto
          -4 0 rlineto
          -21 92 rlineto
          -50 178 rlineto
          -57 0 rlineto
          -47 -178 rlineto
          -22 -92 rlineto
          -3 0 rlineto
          -20 92 rlineto
          -44 178 rlineto
          -64 0 rlineto
          endchar
        </CharString>
        <CharString name="x">
          -113 14 0 rmoveto
          87 0 rlineto
          65 113 rlineto
          17 29 16 30 16 28 rrcurveto
          4 0 rlineto
          18 -28 18 -30 17 -29 rrcurveto
          71 -113 rlineto
          90 0 rlineto
          -158 245 rlineto
          147 241 rlineto
          -87 0 rlineto
          -59 -106 rlineto
          -15 -27 -14 -27 -15 -27 rrcurveto
          -4 0 rlineto
          -16 27 -16 27 -15 27 rrcurveto
          -65 106 rlineto
          -90 0 rlineto
          147 -232 rlineto
          endchar
        </CharString>
        <CharString name="x.sups">
          -252 8 394 rmoveto
          66 0 rlineto
          41 69 rlineto
          33 55 rlineto
          4 0 rlineto
          35 -55 rlineto
          43 -69 rlineto
          68 0 rlineto
          -105 162 rlineto
          99 160 rlineto
          -67 0 rlineto
          -37 -66 rlineto
          -27 -51 rlineto
          -4 0 rlineto
          -31 51 rlineto
          -40 66 rlineto
          -69 0 rlineto
          99 -153 rlineto
          endchar
        </CharString>
        <CharString name="y">
          -92 91 -209 rmoveto
          97 0 51 73 34 96 rrcurveto
          183 526 rlineto
          -81 0 rlineto
          -87 -268 rlineto
          -13 -43 -14 -50 -13 -44 rrcurveto
          -4 0 rlineto
          -16 45 -16 50 -16 42 rrcurveto
          -98 268 rlineto
          -86 0 rlineto
          195 -487 rlineto
          -11 -36 rlineto
          -20 -60 -35 -43 -54 0 rrcurveto
          -12 0 -12 2 -12 4 rrcurveto
          -18 -65 rlineto
          16 -6 19 -4 23 0 rrcurveto
          endchar
        </CharString>
        <CharString name="y.sups">
          -240 65 261 rmoveto
          68 0 35 48 25 67 rrcurveto
          119 340 rlineto
          -62 0 rlineto
          -52 -169 rlineto
          -10 -31 -10 -30 -9 -32 rrcurveto
          -4 0 rlineto
          -10 33 -10 31 -10 29 rrcurveto
          -63 169 rlineto
          -64 0 rlineto
          131 -320 rlineto
          -7 -20 rlineto
          -12 -38 -24 -26 -35 0 rrcurveto
          -8 0 -7 1 -9 4 rrcurveto
          -13 -50 rlineto
          12 -4 13 -2 16 0 rrcurveto
          endchar
        </CharString>
        <CharString name="yacute">
          -92 91 -209 rmoveto
          97 0 51 73 34 96 rrcurveto
          183 526 rlineto
          -81 0 rlineto
          -87 -268 rlineto
          -13 -43 -14 -50 -13 -44 rrcurveto
          -4 0 rlineto
          -16 45 -16 50 -16 42 rrcurveto
          -98 268 rlineto
          -86 0 rlineto
          195 -487 rlineto
          -11 -36 rlineto
          -20 -60 -35 -43 -54 0 rrcurveto
          -12 0 -12 2 -12 4 rrcurveto
          -18 -65 rlineto
          16 -6 19 -4 23 0 rrcurveto
          109 782 rmoveto
          179 153 rlineto
          -51 55 rlineto
          -170 -166 rlineto
          endchar
        </CharString>
        <CharString name="ydieresis">
          -92 91 -209 rmoveto
          97 0 51 73 34 96 rrcurveto
          183 526 rlineto
          -81 0 rlineto
          -87 -268 rlineto
          -13 -43 -14 -50 -13 -44 rrcurveto
          -4 0 rlineto
          -16 45 -16 50 -16 42 rrcurveto
          -98 268 rlineto
          -86 0 rlineto
          195 -487 rlineto
          -11 -36 rlineto
          -20 -60 -35 -43 -54 0 rrcurveto
          -12 0 -12 2 -12 4 rrcurveto
          -18 -65 rlineto
          16 -6 19 -4 23 0 rrcurveto
          56 796 rmoveto
          28 0 21 22 0 28 rrcurveto
          0 28 -21 22 -28 0 rrcurveto
          -29 0 -21 -22 0 -28 rrcurveto
          0 -28 21 -22 29 0 rrcurveto
          192 0 rmoveto
          29 0 21 22 0 28 rrcurveto
          0 28 -21 22 -29 0 rrcurveto
          -28 0 -21 -22 0 -28 rrcurveto
          0 -28 21 -22 28 0 rrcurveto
          endchar
        </CharString>
        <CharString name="yen">
          -63 207 0 rmoveto
          82 0 rlineto
          0 151 rlineto
          162 0 rlineto
          0 52 rlineto
          -162 0 rlineto
          0 67 rlineto
          162 0 rlineto
          0 52 rlineto
          -140 0 rlineto
          162 316 rlineto
          -82 0 rlineto
          -79 -172 rlineto
          -19 -44 -20 -44 -22 -47 rrcurveto
          -4 0 rlineto
          -21 47 -19 44 -20 44 rrcurveto
          -78 172 rlineto
          -85 0 rlineto
          160 -316 rlineto
          -139 0 rlineto
          0 -52 rlineto
          162 0 rlineto
          0 -67 rlineto
          -162 0 rlineto
          0 -52 rlineto
          162 0 rlineto
          endchar
        </CharString>
        <CharString name="z">
          -135 31 0 rmoveto
          369 0 rlineto
          0 68 rlineto
          -264 0 rlineto
          255 374 rlineto
          0 44 rlineto
          -332 0 rlineto
          0 -67 rlineto
          227 0 rlineto
          -255 -375 rlineto
          endchar
        </CharString>
        <CharString name="z.sups">
          -270 21 394 rmoveto
          252 0 rlineto
          0 51 rlineto
          -172 0 rlineto
          166 236 rlineto
          0 35 rlineto
          -226 0 rlineto
          0 -50 rlineto
          147 0 rlineto
          -167 -238 rlineto
          endchar
        </CharString>
        <CharString name="zero">
          -63 249 -12 rmoveto
          127 0 77 119 0 214 rrcurveto
          0 214 -77 115 -127 0 rrcurveto
          -128 0 -77 -115 0 -214 rrcurveto
          0 -214 77 -119 128 0 rrcurveto
          0 67 rmoveto
          -74 0 -50 79 0 187 rrcurveto
          0 187 50 75 74 0 rrcurveto
          74 0 50 -75 0 -187 rrcurveto
          0 -187 -50 -79 -74 0 rrcurveto
          endchar
        </CharString>
        <CharString name="zero.dnom">
          -193 184 -12 rmoveto
          89 0 60 75 0 133 rrcurveto
          0 131 -60 75 -89 0 rrcurveto
          -90 0 -59 -75 0 -131 rrcurveto
          0 -133 59 -75 90 0 rrcurveto
          0 51 rmoveto
          -51 0 -36 53 0 104 rrcurveto
          0 104 36 51 51 0 rrcurveto
          51 0 35 -51 0 -104 rrcurveto
          0 -104 -35 -53 -51 0 rrcurveto
          endchar
        </CharString>
        <CharString name="zero.numr">
          -193 184 254 rmoveto
          89 0 60 75 0 133 rrcurveto
          0 131 -60 75 -89 0 rrcurveto
          -90 0 -59 -75 0 -131 rrcurveto
          0 -133 59 -75 90 0 rrcurveto
          0 51 rmoveto
          -51 0 -36 53 0 104 rrcurveto
          0 104 36 51 51 0 rrcurveto
          51 0 35 -51 0 -104 rrcurveto
          0 -104 -35 -53 -51 0 rrcurveto
          endchar
        </CharString>
        <CharString name="zero.sups">
          -193 184 382 rmoveto
          89 0 60 75 0 133 rrcurveto
          0 131 -60 75 -89 0 rrcurveto
          -90 0 -59 -75 0 -131 rrcurveto
          0 -133 59 -75 90 0 rrcurveto
          0 51 rmoveto
          -51 0 -36 53 0 104 rrcurveto
          0 104 36 51 51 0 rrcurveto
          51 0 35 -51 0 -104 rrcurveto
          0 -104 -35 -53 -51 0 rrcurveto
          endchar
        </CharString>
</ttFont>
